<?xml version="1.0" encoding="UTF-8" standalone="no"?>
<svg
   xmlns:dc="http://purl.org/dc/elements/1.1/"
   xmlns:cc="http://creativecommons.org/ns#"
   xmlns:rdf="http://www.w3.org/1999/02/22-rdf-syntax-ns#"
   xmlns:svg="http://www.w3.org/2000/svg"
   xmlns="http://www.w3.org/2000/svg"
   height="100pt"
   width="411.52408pt"
   version="1.1"
   id="logo"
   x="0px"
   y="0px"
   viewBox="0 0 514.40509 125.00001"
   enable-background="new 0 0 400 300"
   xml:space="preserve"><metadata
     id="metadata63"><rdf:RDF><cc:Work
         rdf:about=""><dc:format>image/svg+xml</dc:format><dc:type
           rdf:resource="http://purl.org/dc/dcmitype/StillImage" /><dc:title></dc:title></cc:Work></rdf:RDF></metadata><defs
     id="defs61" /><g
     transform="translate(57.202055,-87.499901)"
     id="g3628"
     style="fill:#999999"><path
       id="path3"
       d="m 300.829,139.18 c 0.346,-1.109 0.745,-2.022 0.899,-2.975 0.202,-1.256 0.864,-1.495 2.022,-1.458 2.686,0.085 5.376,0.027 8.215,0.027 -0.492,3.86 -0.953,7.58 -1.444,11.296 -0.95,7.186 -1.896,14.372 -2.883,21.553 -0.725,5.277 -2.428,10.091 -6.73,13.613 -2.978,2.438 -6.455,3.645 -10.217,4.098 -6.496,0.782 -12.571,-0.457 -18.16,-3.912 -0.406,-0.251 -0.773,-0.567 -1.262,-0.929 1.454,-2.399 2.862,-4.722 4.285,-7.071 3.79,2.459 7.667,4.029 12.126,3.841 4.664,-0.196 7.506,-2.326 8.744,-6.828 0.436,-1.586 0.684,-3.224 0.78,-4.949 -0.468,0.474 -0.929,0.956 -1.406,1.421 -5.468,5.323 -15.068,4.833 -19.658,-1.003 -1.621,-2.06 -2.505,-4.45 -2.803,-7.009 -0.849,-7.293 0.653,-13.986 5.68,-19.539 4.001,-4.419 9.045,-6.251 14.985,-5.14 2.998,0.561 4.755,1.91 6.827,4.964 z m -1.505,10.605 c -0.049,-0.427 -0.109,-1.06 -0.194,-1.69 -0.704,-5.185 -5.402,-7.524 -9.902,-4.834 -1.1,0.658 -2.132,1.62 -2.862,2.674 -2.238,3.233 -3.025,6.868 -2.323,10.755 0.865,4.788 5.059,6.963 9.365,4.674 1.479,-0.786 2.789,-2.158 3.774,-3.547 1.624,-2.29 2.035,-5.046 2.142,-8.032 z"
       style="fill:#999999" /><path
       id="path5"
       d="m 156.838,121.931 c 3.226,16.711 6.424,33.28 9.639,49.94 -3.789,0 -7.407,0 -11.187,0 -0.579,-3.334 -1.161,-6.69 -1.768,-10.188 -0.47,-0.025 -0.941,-0.07 -1.411,-0.071 -4.806,-0.005 -9.613,0.037 -14.418,-0.033 -1.129,-0.017 -1.614,0.397 -2.018,1.384 -1.225,2.987 -2.552,5.932 -3.851,8.921 -3.412,0 -6.788,0 -10.391,0 0.187,-0.499 0.32,-0.933 0.506,-1.342 7.19,-15.816 14.392,-31.627 21.557,-47.454 0.405,-0.895 0.875,-1.199 1.858,-1.183 3.771,0.064 7.543,0.026 11.484,0.026 z m -17.126,31.078 c 4.306,0 8.386,0 12.558,0 -1.186,-6.9 -2.35,-13.672 -3.514,-20.444 -0.093,-0.002 -0.186,-0.003 -0.279,-0.005 -2.9,6.768 -5.801,13.537 -8.765,20.449 z"
       style="fill:#999999" /><path
       id="path7"
       d="m 343.426,139.412 c 0.386,-1.37 0.653,-2.548 1.069,-3.67 0.145,-0.392 0.65,-0.915 1.002,-0.924 2.933,-0.074 5.869,-0.042 9.032,-0.042 -1.621,12.44 -3.224,24.744 -4.833,37.09 -3.272,0 -6.44,0 -9.778,0 0,-1.499 0,-2.939 0,-4.651 -0.43,0.404 -0.643,0.577 -0.824,0.779 -3.743,4.182 -8.369,5.711 -13.803,4.329 -5.279,-1.342 -7.946,-5.22 -8.913,-10.265 -1.527,-7.971 -0.261,-15.466 4.884,-21.946 3.786,-4.769 8.839,-6.89 14.942,-6.013 2.853,0.41 5.087,1.959 6.628,4.438 0.149,0.235 0.313,0.46 0.594,0.875 z m -1.652,11.474 c 0,-0.686 0.055,-1.377 -0.009,-2.057 -0.319,-3.343 -2,-5.742 -4.534,-6.406 -2.632,-0.69 -4.83,0.225 -6.693,2.046 -3.653,3.571 -5.179,11.52 -3.155,16.231 1.087,2.53 3.043,3.775 5.799,3.602 2.863,-0.18 4.781,-1.868 6.214,-4.165 1.758,-2.82 2.445,-5.953 2.378,-9.251 z"
       style="fill:#999999" /><path
       id="path9"
       d="m 362.661,134.827 c 3.331,0 6.455,0 9.699,0 0,1.546 0,3.043 0,4.78 0.503,-0.481 0.845,-0.779 1.155,-1.109 3.972,-4.233 8.889,-5.39 14.379,-4.151 4.319,0.975 6.964,4.591 6.802,9.436 -0.127,3.81 -0.66,7.611 -1.115,11.404 -0.664,5.537 -1.42,11.064 -2.147,16.665 -3.524,0 -6.979,0 -10.557,0 0.462,-3.576 0.907,-7.065 1.366,-10.553 0.525,-3.983 1.117,-7.959 1.573,-11.95 0.246,-2.148 0.15,-4.375 -2.023,-5.585 -2.291,-1.276 -4.585,-0.792 -6.607,0.754 -2.582,1.973 -3.907,4.599 -4.267,7.877 -0.695,6.33 -1.599,12.638 -2.422,18.954 -0.018,0.14 -0.089,0.274 -0.164,0.494 -3.442,0 -6.894,0 -10.493,0 1.609,-12.357 3.208,-24.637 4.821,-37.016 z"
       style="fill:#999999" /><path
       id="path11"
       d="m 236.91,160.778 c 1.201,2.035 2.392,4.052 3.673,6.221 -0.798,0.653 -1.524,1.382 -2.372,1.92 -5.595,3.549 -11.69,4.71 -18.154,3.338 -5.527,-1.172 -9.148,-4.642 -10.508,-10.122 -1.973,-7.946 -0.605,-15.296 4.755,-21.643 5.04,-5.968 13.47,-8.195 20.871,-5.646 3.965,1.366 6.6,3.946 7.217,8.255 0.599,4.183 -0.934,7.496 -4.227,10.024 -3.513,2.696 -7.609,3.984 -11.913,4.656 -2.267,0.354 -4.562,0.526 -6.856,0.781 -0.387,2.964 1.953,5.61 5.385,6.015 3.999,0.472 7.531,-0.814 10.837,-2.92 0.412,-0.262 0.809,-0.549 1.292,-0.879 z m -17.288,-9.402 c 1.218,-0.122 2.461,-0.098 3.622,-0.394 2.397,-0.611 4.871,-1.138 7.088,-2.178 2.176,-1.021 2.833,-3.425 2.019,-5.388 -0.73,-1.76 -2.772,-2.65 -5.092,-2.22 -4.263,0.79 -7.682,5.276 -7.637,10.18 z"
       style="fill:#999999" /><path
       id="path13"
       d="m 181.491,171.874 c -3.54,0 -6.954,0 -10.575,0 2.229,-17.148 4.447,-34.211 6.675,-51.347 3.533,0 6.987,0 10.575,0 -2.226,17.123 -4.44,34.155 -6.675,51.347 z"
       style="fill:#999999" /><path
       id="path15"
       d="m 200.147,171.856 c -3.572,0 -7.03,0 -10.577,0 2.233,-17.163 4.455,-34.239 6.68,-51.332 3.559,0 6.97,0 10.57,0 -2.228,17.132 -4.441,34.163 -6.673,51.332 z"
       style="fill:#999999" /><path
       id="path17"
       d="m 255.817,171.933 c -3.21,0 -6.347,0 -9.484,0 -0.239,0 -0.477,0 -0.959,0 1.617,-12.429 3.219,-24.733 4.827,-37.089 3.281,0 6.445,0 9.747,0 0,1.747 0,3.428 0,5.066 1.303,-1.382 2.438,-2.857 3.837,-4.011 2.523,-2.081 5.468,-2.484 8.592,-1.548 0.938,0.281 1.296,0.77 0.996,1.853 -0.783,2.823 -1.425,5.685 -2.142,8.61 -0.785,-0.191 -1.476,-0.418 -2.186,-0.522 -2.757,-0.406 -5.127,0.344 -7.073,2.395 -2.658,2.801 -3.737,6.189 -4.107,9.971 -0.481,4.923 -1.209,9.823 -1.836,14.731 -0.019,0.137 -0.103,0.268 -0.212,0.544 z"
       style="fill:#999999" /><path
       id="path19"
       d="m 40.627,126.451 c -0.001,-4.897 3.972,-8.901 8.865,-8.933 4.92,-0.033 9.032,4.092 8.971,8.997 -0.061,4.9 -4.089,8.883 -8.961,8.862 -4.89,-0.023 -8.874,-4.03 -8.875,-8.926 z"
       style="fill:#999999" /><path
       id="path21"
       d="m 40.627,173.481 c 0.025,-4.88 4.067,-8.883 8.942,-8.857 4.877,0.026 8.897,4.061 8.896,8.929 -0.001,4.93 -4.128,9.007 -9.041,8.929 -4.9,-0.078 -8.822,-4.091 -8.797,-9.001 z"
       style="fill:#999999" /><path
       id="path23"
       d="m 47.997,150.056 c -0.018,4.892 -4.032,8.886 -8.92,8.875 -4.884,-0.011 -8.889,-4.019 -8.905,-8.912 -0.016,-4.937 4.091,-9.014 9.016,-8.949 4.907,0.064 8.828,4.064 8.809,8.986 z"
       style="fill:#999999" /><path
       id="path25"
       d="m 96.566,149.988 c 0.005,-4.88 4.016,-8.902 8.895,-8.918 4.864,-0.016 8.914,3.988 8.968,8.869 0.055,4.893 -4.077,9.024 -8.994,8.991 -4.885,-0.033 -8.874,-4.055 -8.869,-8.942 z"
       style="fill:#999999" /><path
       id="path27"
       d="m 86.171,126.519 c -0.033,-4.937 3.863,-8.932 8.777,-9.001 4.883,-0.069 8.947,3.9 8.997,8.787 0.052,5.005 -3.894,9.047 -8.858,9.074 -4.895,0.027 -8.884,-3.936 -8.916,-8.86 z"
       style="fill:#999999" /><path
       id="path29"
       d="m 103.948,173.569 c -0.007,4.915 -3.97,8.895 -8.874,8.913 -4.952,0.019 -8.946,-4.03 -8.903,-9.023 0.043,-4.922 4.047,-8.882 8.938,-8.839 4.911,0.043 8.846,4.027 8.839,8.949 z"
       style="fill:#999999" /><path
       id="path31"
       d="m 72.124,106.577 c 4.887,0.035 8.855,4.068 8.819,8.966 -0.036,4.879 -4.079,8.881 -8.952,8.862 -4.879,-0.019 -8.923,-4.064 -8.913,-8.916 0.01,-4.938 4.079,-8.947 9.046,-8.912 z"
       style="fill:#999999" /><path
       id="path33"
       d="m 72.061,193.423 c -4.95,0.014 -9.028,-4.06 -8.984,-8.975 0.044,-4.867 4.131,-8.897 8.976,-8.85 4.915,0.047 8.881,4.028 8.889,8.922 0.009,4.892 -3.978,8.889 -8.881,8.903 z"
       style="fill:#999999" /><path
       id="path35"
       d="m 87.353,154.882 c -2.715,-0.02 -4.869,-2.156 -4.89,-4.849 -0.021,-2.741 2.188,-4.925 4.973,-4.915 2.691,0.009 4.878,2.174 4.902,4.851 0.024,2.721 -2.221,4.933 -4.985,4.913 z"
       style="fill:#999999" /><path
       id="path37"
       d="m 83.294,133.2 c -0.037,2.719 -2.329,4.925 -5.052,4.862 -2.653,-0.062 -4.852,-2.338 -4.8,-4.968 0.053,-2.697 2.235,-4.855 4.906,-4.852 2.749,0.002 4.983,2.241 4.946,4.958 z"
       style="fill:#999999" /><path
       id="path39"
       d="m 78.345,171.717 c -2.778,-0.007 -4.965,-2.22 -4.905,-4.964 0.058,-2.658 2.295,-4.833 4.952,-4.815 2.723,0.018 4.948,2.292 4.901,5.009 -0.046,2.677 -2.224,4.777 -4.948,4.77 z"
       style="fill:#999999" /><path
       id="path41"
       d="m 21.053,145.117 c 2.775,0.025 4.909,2.225 4.854,5.003 -0.053,2.695 -2.211,4.772 -4.946,4.762 -2.783,-0.01 -4.877,-2.178 -4.83,-5 0.046,-2.719 2.185,-4.79 4.922,-4.765 z"
       style="fill:#999999" /><path
       id="path43"
       d="m 37.725,166.865 c -0.007,2.753 -2.072,4.835 -4.818,4.856 -2.813,0.022 -4.959,-2.095 -4.952,-4.884 0.007,-2.756 2.222,-4.933 4.98,-4.895 2.683,0.038 4.797,2.211 4.79,4.923 z"
       style="fill:#999999" /><path
       id="path45"
       d="m 37.725,133.187 c -0.01,2.7 -2.158,4.862 -4.841,4.871 -2.759,0.01 -4.941,-2.181 -4.929,-4.948 0.012,-2.716 2.122,-4.815 4.857,-4.832 2.818,-0.017 4.923,2.087 4.913,4.909 z"
       style="fill:#999999" /><path
       id="path47"
       d="m 20.958,141.556 c -1.756,-0.022 -3.262,-1.551 -3.26,-3.309 0.002,-1.755 1.51,-3.279 3.269,-3.302 1.818,-0.024 3.371,1.552 3.333,3.383 -0.037,1.755 -1.585,3.25 -3.342,3.228 z"
       style="fill:#999999" /><path
       id="path49"
       d="m 24.302,161.765 c -0.007,1.762 -1.521,3.28 -3.283,3.291 -1.752,0.011 -3.288,-1.492 -3.321,-3.251 -0.034,-1.81 1.552,-3.402 3.352,-3.364 1.764,0.038 3.259,1.567 3.252,3.324 z"
       style="fill:#999999" /><path
       id="path51"
       d="m 5.298,149.983 c 0.009,-1.789 1.486,-3.282 3.257,-3.293 1.846,-0.012 3.313,1.512 3.274,3.401 -0.037,1.807 -1.524,3.254 -3.309,3.219 -1.783,-0.034 -3.232,-1.53 -3.222,-3.327 z"
       style="fill:#999999" /><path
       id="path53"
       d="m 67.871,140.151 c -1.83,-0.016 -3.313,-1.446 -3.338,-3.218 -0.025,-1.821 1.516,-3.301 3.419,-3.285 1.791,0.016 3.275,1.523 3.243,3.292 -0.032,1.794 -1.515,3.227 -3.324,3.211 z"
       style="fill:#999999" /><path
       id="path55"
       d="m 79.533,150.046 c -0.015,1.825 -1.498,3.332 -3.235,3.289 -1.766,-0.044 -3.265,-1.555 -3.279,-3.308 -0.015,-1.805 1.572,-3.389 3.371,-3.365 1.748,0.025 3.159,1.543 3.143,3.384 z"
       style="fill:#999999" /><path
       id="path57"
       d="m 67.875,166.352 c -1.828,-0.015 -3.313,-1.444 -3.341,-3.216 -0.029,-1.823 1.509,-3.303 3.415,-3.288 1.793,0.014 3.275,1.515 3.247,3.288 -0.029,1.792 -1.515,3.231 -3.321,3.216 z"
       style="fill:#999999" /></g></svg>