<?xml version="1.0" encoding="UTF-8" standalone="no"?>
<svg
   xmlns:dc="http://purl.org/dc/elements/1.1/"
   xmlns:cc="http://creativecommons.org/ns#"
   xmlns:rdf="http://www.w3.org/1999/02/22-rdf-syntax-ns#"
   xmlns:svg="http://www.w3.org/2000/svg"
   xmlns="http://www.w3.org/2000/svg"
   xml:space="preserve"
   enable-background="new 0 0 400 300"
   viewBox="0 0 400 300"
   y="0px"
   x="0px"
   id="logo"
   version="1.1"><metadata
     id="metadata63"><rdf:RDF><cc:Work
         rdf:about=""><dc:format>image/svg+xml</dc:format><dc:type
           rdf:resource="http://purl.org/dc/dcmitype/StillImage" /><dc:title></dc:title></cc:Work></rdf:RDF></metadata><defs
     id="defs61" /><g
     style="fill:#999999"
     id="g3628"><path
       style="fill:#999999"
       fill="#2D5696"
       d="M300.829,139.18c0.346-1.109,0.745-2.022,0.899-2.975c0.202-1.256,0.864-1.495,2.022-1.458  c2.686,0.085,5.376,0.027,8.215,0.027c-0.492,3.86-0.953,7.58-1.444,11.296c-0.95,7.186-1.896,14.372-2.883,21.553  c-0.725,5.277-2.428,10.091-6.73,13.613c-2.978,2.438-6.455,3.645-10.217,4.098c-6.496,0.782-12.571-0.457-18.16-3.912  c-0.406-0.251-0.773-0.567-1.262-0.929c1.454-2.399,2.862-4.722,4.285-7.071c3.79,2.459,7.667,4.029,12.126,3.841  c4.664-0.196,7.506-2.326,8.744-6.828c0.436-1.586,0.684-3.224,0.78-4.949c-0.468,0.474-0.929,0.956-1.406,1.421  c-5.468,5.323-15.068,4.833-19.658-1.003c-1.621-2.06-2.505-4.45-2.803-7.009c-0.849-7.293,0.653-13.986,5.68-19.539  c4.001-4.419,9.045-6.251,14.985-5.14C297,134.777,298.757,136.126,300.829,139.18z M299.324,149.785  c-0.049-0.427-0.109-1.06-0.194-1.69c-0.704-5.185-5.402-7.524-9.902-4.834c-1.1,0.658-2.132,1.62-2.862,2.674  c-2.238,3.233-3.025,6.868-2.323,10.755c0.865,4.788,5.059,6.963,9.365,4.674c1.479-0.786,2.789-2.158,3.774-3.547  C298.806,155.527,299.217,152.771,299.324,149.785z"
       id="path3" /><path
       style="fill:#999999"
       fill="#2D5696"
       d="M156.838,121.931c3.226,16.711,6.424,33.28,9.639,49.94c-3.789,0-7.407,0-11.187,0  c-0.579-3.334-1.161-6.69-1.768-10.188c-0.47-0.025-0.941-0.07-1.411-0.071c-4.806-0.005-9.613,0.037-14.418-0.033  c-1.129-0.017-1.614,0.397-2.018,1.384c-1.225,2.987-2.552,5.932-3.851,8.921c-3.412,0-6.788,0-10.391,0  c0.187-0.499,0.32-0.933,0.506-1.342c7.19-15.816,14.392-31.627,21.557-47.454c0.405-0.895,0.875-1.199,1.858-1.183  C149.125,121.969,152.897,121.931,156.838,121.931z M139.712,153.009c4.306,0,8.386,0,12.558,0c-1.186-6.9-2.35-13.672-3.514-20.444  c-0.093-0.002-0.186-0.003-0.279-0.005C145.577,139.328,142.676,146.097,139.712,153.009z"
       id="path5" /><path
       style="fill:#999999"
       fill="#2D5696"
       d="M343.426,139.412c0.386-1.37,0.653-2.548,1.069-3.67c0.145-0.392,0.65-0.915,1.002-0.924  c2.933-0.074,5.869-0.042,9.032-0.042c-1.621,12.44-3.224,24.744-4.833,37.09c-3.272,0-6.44,0-9.778,0c0-1.499,0-2.939,0-4.651  c-0.43,0.404-0.643,0.577-0.824,0.779c-3.743,4.182-8.369,5.711-13.803,4.329c-5.279-1.342-7.946-5.22-8.913-10.265  c-1.527-7.971-0.261-15.466,4.884-21.946c3.786-4.769,8.839-6.89,14.942-6.013c2.853,0.41,5.087,1.959,6.628,4.438  C342.981,138.772,343.145,138.997,343.426,139.412z M341.774,150.886c0-0.686,0.055-1.377-0.009-2.057  c-0.319-3.343-2-5.742-4.534-6.406c-2.632-0.69-4.83,0.225-6.693,2.046c-3.653,3.571-5.179,11.52-3.155,16.231  c1.087,2.53,3.043,3.775,5.799,3.602c2.863-0.18,4.781-1.868,6.214-4.165C341.154,157.317,341.841,154.184,341.774,150.886z"
       id="path7" /><path
       style="fill:#999999"
       fill="#2D5696"
       d="M362.661,134.827c3.331,0,6.455,0,9.699,0c0,1.546,0,3.043,0,4.78c0.503-0.481,0.845-0.779,1.155-1.109  c3.972-4.233,8.889-5.39,14.379-4.151c4.319,0.975,6.964,4.591,6.802,9.436c-0.127,3.81-0.66,7.611-1.115,11.404  c-0.664,5.537-1.42,11.064-2.147,16.665c-3.524,0-6.979,0-10.557,0c0.462-3.576,0.907-7.065,1.366-10.553  c0.525-3.983,1.117-7.959,1.573-11.95c0.246-2.148,0.15-4.375-2.023-5.585c-2.291-1.276-4.585-0.792-6.607,0.754  c-2.582,1.973-3.907,4.599-4.267,7.877c-0.695,6.33-1.599,12.638-2.422,18.954c-0.018,0.14-0.089,0.274-0.164,0.494  c-3.442,0-6.894,0-10.493,0C359.449,159.486,361.048,147.206,362.661,134.827z"
       id="path9" /><path
       style="fill:#999999"
       fill="#2E5696"
       d="M236.91,160.778c1.201,2.035,2.392,4.052,3.673,6.221c-0.798,0.653-1.524,1.382-2.372,1.92  c-5.595,3.549-11.69,4.71-18.154,3.338c-5.527-1.172-9.148-4.642-10.508-10.122c-1.973-7.946-0.605-15.296,4.755-21.643  c5.04-5.968,13.47-8.195,20.871-5.646c3.965,1.366,6.6,3.946,7.217,8.255c0.599,4.183-0.934,7.496-4.227,10.024  c-3.513,2.696-7.609,3.984-11.913,4.656c-2.267,0.354-4.562,0.526-6.856,0.781c-0.387,2.964,1.953,5.61,5.385,6.015  c3.999,0.472,7.531-0.814,10.837-2.92C236.03,161.395,236.427,161.108,236.91,160.778z M219.622,151.376  c1.218-0.122,2.461-0.098,3.622-0.394c2.397-0.611,4.871-1.138,7.088-2.178c2.176-1.021,2.833-3.425,2.019-5.388  c-0.73-1.76-2.772-2.65-5.092-2.22C222.996,141.986,219.577,146.472,219.622,151.376z"
       id="path11" /><path
       style="fill:#999999"
       fill="#2E5696"
       d="M181.491,171.874c-3.54,0-6.954,0-10.575,0c2.229-17.148,4.447-34.211,6.675-51.347  c3.533,0,6.987,0,10.575,0C185.94,137.65,183.726,154.682,181.491,171.874z"
       id="path13" /><path
       style="fill:#999999"
       fill="#2D5696"
       d="M200.147,171.856c-3.572,0-7.03,0-10.577,0c2.233-17.163,4.455-34.239,6.68-51.332c3.559,0,6.97,0,10.57,0  C204.592,137.656,202.379,154.687,200.147,171.856z"
       id="path15" /><path
       style="fill:#999999"
       fill="#2D5696"
       d="M255.817,171.933c-3.21,0-6.347,0-9.484,0c-0.239,0-0.477,0-0.959,0c1.617-12.429,3.219-24.733,4.827-37.089  c3.281,0,6.445,0,9.747,0c0,1.747,0,3.428,0,5.066c1.303-1.382,2.438-2.857,3.837-4.011c2.523-2.081,5.468-2.484,8.592-1.548  c0.938,0.281,1.296,0.77,0.996,1.853c-0.783,2.823-1.425,5.685-2.142,8.61c-0.785-0.191-1.476-0.418-2.186-0.522  c-2.757-0.406-5.127,0.344-7.073,2.395c-2.658,2.801-3.737,6.189-4.107,9.971c-0.481,4.923-1.209,9.823-1.836,14.731  C256.01,171.526,255.926,171.657,255.817,171.933z"
       id="path17" /><path
       style="fill:#999999"
       fill="#44AF2C"
       d="M40.627,126.451c-0.001-4.897,3.972-8.901,8.865-8.933c4.92-0.033,9.032,4.092,8.971,8.997  c-0.061,4.9-4.089,8.883-8.961,8.862C44.612,135.354,40.628,131.347,40.627,126.451z"
       id="path19" /><path
       style="fill:#999999"
       fill="#44AF2C"
       d="M40.627,173.481c0.025-4.88,4.067-8.883,8.942-8.857c4.877,0.026,8.897,4.061,8.896,8.929  c-0.001,4.93-4.128,9.007-9.041,8.929C44.524,182.404,40.602,178.391,40.627,173.481z"
       id="path21" /><path
       style="fill:#999999"
       fill="#44AF2C"
       d="M47.997,150.056c-0.018,4.892-4.032,8.886-8.92,8.875c-4.884-0.011-8.889-4.019-8.905-8.912  c-0.016-4.937,4.091-9.014,9.016-8.949C44.095,141.134,48.016,145.134,47.997,150.056z"
       id="path23" /><path
       style="fill:#999999"
       fill="#2E5696"
       d="M96.566,149.988c0.005-4.88,4.016-8.902,8.895-8.918c4.864-0.016,8.914,3.988,8.968,8.869  c0.055,4.893-4.077,9.024-8.994,8.991C100.55,158.897,96.561,154.875,96.566,149.988z"
       id="path25" /><path
       style="fill:#999999"
       fill="#2E5696"
       d="M86.171,126.519c-0.033-4.937,3.863-8.932,8.777-9.001c4.883-0.069,8.947,3.9,8.997,8.787  c0.052,5.005-3.894,9.047-8.858,9.074C90.192,135.406,86.203,131.443,86.171,126.519z"
       id="path27" /><path
       style="fill:#999999"
       fill="#2E5696"
       d="M103.948,173.569c-0.007,4.915-3.97,8.895-8.874,8.913c-4.952,0.019-8.946-4.03-8.903-9.023  c0.043-4.922,4.047-8.882,8.938-8.839C100.02,164.663,103.955,168.647,103.948,173.569z"
       id="path29" /><path
       style="fill:#999999"
       fill="#3E86CA"
       d="M72.124,106.577c4.887,0.035,8.855,4.068,8.819,8.966c-0.036,4.879-4.079,8.881-8.952,8.862  c-4.879-0.019-8.923-4.064-8.913-8.916C63.088,110.551,67.157,106.542,72.124,106.577z"
       id="path31" /><path
       style="fill:#999999"
       fill="#3E86CA"
       d="M72.061,193.423c-4.95,0.014-9.028-4.06-8.984-8.975c0.044-4.867,4.131-8.897,8.976-8.85  c4.915,0.047,8.881,4.028,8.889,8.922C80.951,189.412,76.964,193.409,72.061,193.423z"
       id="path33" /><path
       style="fill:#999999"
       fill="#4087CA"
       d="M87.353,154.882c-2.715-0.02-4.869-2.156-4.89-4.849c-0.021-2.741,2.188-4.925,4.973-4.915  c2.691,0.009,4.878,2.174,4.902,4.851C92.362,152.69,90.117,154.902,87.353,154.882z"
       id="path35" /><path
       style="fill:#999999"
       fill="#4087CA"
       d="M83.294,133.2c-0.037,2.719-2.329,4.925-5.052,4.862c-2.653-0.062-4.852-2.338-4.8-4.968  c0.053-2.697,2.235-4.855,4.906-4.852C81.097,128.244,83.331,130.483,83.294,133.2z"
       id="path37" /><path
       style="fill:#999999"
       fill="#4087CA"
       d="M78.345,171.717c-2.778-0.007-4.965-2.22-4.905-4.964c0.058-2.658,2.295-4.833,4.952-4.815  c2.723,0.018,4.948,2.292,4.901,5.009C83.247,169.624,81.069,171.724,78.345,171.717z"
       id="path39" /><path
       style="fill:#999999"
       fill="#A3D235"
       d="M21.053,145.117c2.775,0.025,4.909,2.225,4.854,5.003c-0.053,2.695-2.211,4.772-4.946,4.762  c-2.783-0.01-4.877-2.178-4.83-5C16.177,147.163,18.316,145.092,21.053,145.117z"
       id="path41" /><path
       style="fill:#999999"
       fill="#A3D235"
       d="M37.725,166.865c-0.007,2.753-2.072,4.835-4.818,4.856c-2.813,0.022-4.959-2.095-4.952-4.884  c0.007-2.756,2.222-4.933,4.98-4.895C35.618,161.98,37.732,164.153,37.725,166.865z"
       id="path43" /><path
       style="fill:#999999"
       fill="#A3D235"
       d="M37.725,133.187c-0.01,2.7-2.158,4.862-4.841,4.871c-2.759,0.01-4.941-2.181-4.929-4.948  c0.012-2.716,2.122-4.815,4.857-4.832C35.63,128.261,37.735,130.365,37.725,133.187z"
       id="path45" /><path
       style="fill:#999999"
       fill="#C5D506"
       d="M20.958,141.556c-1.756-0.022-3.262-1.551-3.26-3.309c0.002-1.755,1.51-3.279,3.269-3.302  c1.818-0.024,3.371,1.552,3.333,3.383C24.263,140.083,22.715,141.578,20.958,141.556z"
       id="path47" /><path
       style="fill:#999999"
       fill="#C5D506"
       d="M24.302,161.765c-0.007,1.762-1.521,3.28-3.283,3.291c-1.752,0.011-3.288-1.492-3.321-3.251  c-0.034-1.81,1.552-3.402,3.352-3.364C22.814,158.479,24.309,160.008,24.302,161.765z"
       id="path49" /><path
       style="fill:#999999"
       fill="#C5D507"
       d="M5.298,149.983c0.009-1.789,1.486-3.282,3.257-3.293c1.846-0.012,3.313,1.512,3.274,3.401  c-0.037,1.807-1.524,3.254-3.309,3.219C6.737,153.276,5.288,151.78,5.298,149.983z"
       id="path51" /><path
       style="fill:#999999"
       fill="#81ADE2"
       d="M67.871,140.151c-1.83-0.016-3.313-1.446-3.338-3.218c-0.025-1.821,1.516-3.301,3.419-3.285  c1.791,0.016,3.275,1.523,3.243,3.292C71.163,138.734,69.68,140.167,67.871,140.151z"
       id="path53" /><path
       style="fill:#999999"
       fill="#81ADE2"
       d="M79.533,150.046c-0.015,1.825-1.498,3.332-3.235,3.289c-1.766-0.044-3.265-1.555-3.279-3.308  c-0.015-1.805,1.572-3.389,3.371-3.365C78.138,146.687,79.549,148.205,79.533,150.046z"
       id="path55" /><path
       style="fill:#999999"
       fill="#81ADE2"
       d="M67.875,166.352c-1.828-0.015-3.313-1.444-3.341-3.216c-0.029-1.823,1.509-3.303,3.415-3.288  c1.793,0.014,3.275,1.515,3.247,3.288C71.167,164.928,69.681,166.367,67.875,166.352z"
       id="path57" /></g></svg>