<?xml version="1.0" encoding="UTF-8" standalone="no"?>
<svg
   xmlns:dc="http://purl.org/dc/elements/1.1/"
   xmlns:cc="http://creativecommons.org/ns#"
   xmlns:rdf="http://www.w3.org/1999/02/22-rdf-syntax-ns#"
   xmlns:svg="http://www.w3.org/2000/svg"
   xmlns="http://www.w3.org/2000/svg"
   xml:space="preserve"
   enable-background="new 0 0 400 300"
   viewBox="0 0 588.694 125.00001"
   height="100pt"
   width="470.9552pt"
   y="0px"
   x="0px"
   id="cat"
   version="1.1"><metadata
     id="metadata83"><rdf:RDF><cc:Work
         rdf:about=""><dc:format>image/svg+xml</dc:format><dc:type
           rdf:resource="http://purl.org/dc/dcmitype/StillImage" /><dc:title></dc:title></cc:Work></rdf:RDF></metadata><defs
     id="defs81" /><g
     style="fill:#999999"
     id="g3594"
     transform="translate(94.395,-84.437496)"><path
       style="fill:#999999"
       id="r"
       d="m 170.005,141.494 -3.301,0.077 0,-13.202 3.783,0 c 2.866,0 3.806,2.103 3.806,6.697 0,4.594 -1.058,6.428 -4.288,6.428 m 16.658,30.106 0,-14.154 c 0,-6.709 -2.396,-10.61 -7.511,-11.527 5.946,-1.578 7.575,-6.566 7.575,-12.956 0,-9.007 -3.239,-14.605 -13.742,-14.605 l -18.812,0 0.01,58.319 12.523,0 0,-25.357 3.087,0 c 3.013,0 4.444,2.08 4.444,4.855 l 0,15.512 c 0,2.58 0.519,4.48 0.873,4.987 l 12.667,0 c -0.442,-0.485 -1.114,-2.494 -1.114,-5.074" /><path
       style="fill:#999999"
       id="c"
       d="m 46.188,166.759 c 2.24,-1.87 2.626,-4.182 2.626,-6.258 l 0,-8.718 -12.176,0 0,11.826 c 0,1.697 -1.37,3.067 -3.061,3.067 -1.691,0 -2.949,-1.37 -2.949,-3.067 l 0,-33.512 c 0,-1.69 1.259,-3.063 2.949,-3.063 1.69,0 3.061,1.373 3.061,3.063 l 0,11.907 12.158,0 0,-12.352 c 0,-6.824 -4.46,-12.44 -15.321,-12.454 -11.154,0 -15.37,5.642 -15.37,12.466 l 0,34.996 c 0,6.762 5.371,11.879 12.239,11.879 l 3.77,0 12.074,-9.78 z" /><path
       style="fill:#999999"
       id="r_1_"
       d="m 364.039,141.465 -3.322,0 0,-13.126 3.801,0 c 2.86,0 3.809,2.103 3.809,6.693 -10e-4,4.598 -1.05,6.433 -4.288,6.433 m 16.645,30.099 0,-14.15 c 0,-6.71 -2.381,-10.607 -7.498,-11.53 5.947,-1.573 7.573,-6.559 7.573,-12.944 0,-9.013 -3.247,-14.613 -13.744,-14.613 l -18.813,0 0,58.321 12.556,0 0,-25.356 3.062,0 c 3.021,0 4.435,2.077 4.435,4.853 l 0,15.518 c 0,2.579 0.532,4.479 0.886,4.986 l 12.658,0 c -0.442,-0.489 -1.115,-2.506 -1.115,-5.085" /><path
       style="fill:#999999"
       id="a_1_"
       d="m 322.126,155.661 3.26,-27.212 3.254,27.212 -6.514,0 z m 11.647,-37.447 -16.841,0 -10.002,58.427 12.677,0 1.244,-10.307 9.057,-0.007 1.236,10.313 12.688,0 -10.059,-58.426 z" /><polygon
       style="fill:#999999"
       id="l"
       points="262.652,165.568 276.033,165.568 276.033,176.634 249.809,176.634 249.809,118.342 262.652,118.342 " /><rect
       style="fill:#999999"
       id="i"
       x="230.16901"
       y="118.345"
       width="12.831"
       height="58.296001" /><polygon
       style="fill:#999999"
       id="l_1_"
       points="262.652,165.568 276.033,165.568 276.033,176.634 249.809,176.634 249.809,118.342 262.652,118.342 " /><polygon
       style="fill:#999999"
       id="l_2_"
       points="291.957,165.568 305.352,165.568 305.352,176.634 279.126,176.634 279.126,118.342 291.957,118.342 " /><path
       style="fill:#999999"
       id="p"
       d="m 209.152,143.196 -3.828,-0.047 0,-14.787 3.81,0 c 3.254,0 3.8,2.23 3.8,7.568 0,5.515 -0.55,7.266 -3.782,7.266 m 3.232,-24.851 -19.57,0 0,58.319 12.549,0 0,-23.144 7.021,0 c 11.53,0 13.477,-7.348 13.477,-17.588 0,-10.241 -1.944,-17.587 -13.477,-17.587" /><polygon
       style="fill:#999999"
       id="e"
       points="119.635,176.634 119.635,118.33 119.622,118.33 147.761,118.33 147.761,129.455 132.489,129.455 132.489,141.005 145.779,141.005 145.779,152.427 132.489,152.427 132.489,165.373 148.279,165.366 148.279,176.621 " /><polygon
       style="fill:#999999"
       id="t"
       points="85.78,118.348 116.189,118.348 116.189,129.675 107.744,129.675 107.744,176.471 104.142,176.471 94.184,168.133 94.184,129.675 85.78,129.675 " /><polygon
       style="fill:#999999"
       id="yellow"
       points="99.631,176.557 70.019,151.74 39.334,176.557 " /><path
       style="fill:#999999"
       id="a"
       d="m 66.744,145.055 3.278,-16.756 3.26,16.756 -6.538,0 z m 11.723,-26.648 -16.963,0 -9.882,44.343 18.403,-14.855 19.186,16.08 -10.744,-45.568 z" /></g></svg>