<?xml version="1.0" encoding="UTF-8" standalone="no"?>
<svg
   xmlns:dc="http://purl.org/dc/elements/1.1/"
   xmlns:cc="http://creativecommons.org/ns#"
   xmlns:rdf="http://www.w3.org/1999/02/22-rdf-syntax-ns#"
   xmlns:svg="http://www.w3.org/2000/svg"
   xmlns="http://www.w3.org/2000/svg"
   xml:space="preserve"
   enable-background="new 0 0 400 300"
   viewBox="0 0 400 300"
   height="300px"
   width="400px"
   y="0px"
   x="0px"
   id="cat"
   version="1.1"><metadata
     id="metadata83"><rdf:RDF><cc:Work
         rdf:about=""><dc:format>image/svg+xml</dc:format><dc:type
           rdf:resource="http://purl.org/dc/dcmitype/StillImage" /><dc:title></dc:title></cc:Work></rdf:RDF></metadata><defs
     id="defs81" /><g
     style="fill:#999999"
     id="g3594"><path
       style="fill:#999999"
       id="r"
       d="M170.005,141.494l-3.301,0.077v-13.202h3.783c2.866,0,3.806,2.103,3.806,6.697  C174.293,139.66,173.235,141.494,170.005,141.494 M186.663,171.6v-14.154c0-6.709-2.396-10.61-7.511-11.527  c5.946-1.578,7.575-6.566,7.575-12.956c0-9.007-3.239-14.605-13.742-14.605h-18.812l0.01,58.319h12.523v-25.357h3.087  c3.013,0,4.444,2.08,4.444,4.855v15.512c0,2.58,0.519,4.48,0.873,4.987h12.667C187.335,176.189,186.663,174.18,186.663,171.6" /><path
       style="fill:#999999"
       id="c"
       d="M46.188,166.759c2.24-1.87,2.626-4.182,2.626-6.258v-8.718H36.638v11.826c0,1.697-1.37,3.067-3.061,3.067  c-1.691,0-2.949-1.37-2.949-3.067v-33.512c0-1.69,1.259-3.063,2.949-3.063s3.061,1.373,3.061,3.063v11.907h12.158v-12.352  c0-6.824-4.46-12.44-15.321-12.454c-11.154,0-15.37,5.642-15.37,12.466v34.996c0,6.762,5.371,11.879,12.239,11.879h3.77  L46.188,166.759z" /><path
       style="fill:#999999"
       id="r_1_"
       d="M364.039,141.465h-3.322v-13.126h3.801c2.86,0,3.809,2.103,3.809,6.693  C368.326,139.63,367.277,141.465,364.039,141.465 M380.684,171.564v-14.15c0-6.71-2.381-10.607-7.498-11.53  c5.947-1.573,7.573-6.559,7.573-12.944c0-9.013-3.247-14.613-13.744-14.613h-18.813v58.321h12.556v-25.356h3.062  c3.021,0,4.435,2.077,4.435,4.853v15.518c0,2.579,0.532,4.479,0.886,4.986h12.658C381.357,176.16,380.684,174.143,380.684,171.564" /><path
       style="fill:#999999"
       id="a_1_"
       d="M322.126,155.661l3.26-27.212l3.254,27.212H322.126z M333.773,118.214h-16.841l-10.002,58.427h12.677  l1.244-10.307l9.057-0.007l1.236,10.313h12.688L333.773,118.214z" /><polygon
       style="fill:#999999"
       id="l"
       points="249.809,176.634 249.809,118.342 262.652,118.342 262.652,165.568 276.033,165.568 276.033,176.634 " /><rect
       style="fill:#999999"
       id="i"
       x="230.169"
       y="118.345"
       width="12.831"
       height="58.296" /><polygon
       style="fill:#999999"
       id="l_1_"
       points="249.809,176.634 249.809,118.342 262.652,118.342 262.652,165.568 276.033,165.568 276.033,176.634 " /><polygon
       style="fill:#999999"
       id="l_2_"
       points="279.126,176.634 279.126,118.342 291.957,118.342 291.957,165.568 305.352,165.568 305.352,176.634 " /><path
       style="fill:#999999"
       id="p"
       d="M209.152,143.196l-3.828-0.047v-14.787h3.81c3.254,0,3.8,2.23,3.8,7.568  C212.934,141.445,212.384,143.196,209.152,143.196 M212.384,118.345h-19.57v58.319h12.549V153.52h7.021  c11.53,0,13.477-7.348,13.477-17.588C225.861,125.691,223.917,118.345,212.384,118.345" /><polygon
       style="fill:#999999"
       id="e"
       points="132.489,129.455 132.489,141.005 145.779,141.005 145.779,152.427 132.489,152.427 132.489,165.373   148.279,165.366 148.279,176.621 119.635,176.634 119.635,118.33 119.622,118.33 147.761,118.33 147.761,129.455 " /><polygon
       style="fill:#999999"
       id="t"
       points="94.184,168.133 94.184,129.675 85.78,129.675 85.78,118.348 116.189,118.348 116.189,129.675   107.744,129.675 107.744,176.471 104.142,176.471 " /><polygon
       style="fill:#999999"
       id="yellow"
       fill="#FFC400"
       points="99.631,176.557 70.019,151.74 39.334,176.557 " /><path
       style="fill:#999999"
       id="a"
       d="M66.744,145.055l3.278-16.756l3.26,16.756H66.744z M78.467,118.407H61.504l-9.882,44.343l18.403-14.855l19.186,16.08  L78.467,118.407z" /></g></svg>