<?xml version="1.0" encoding="UTF-8" standalone="no"?>
<svg
   xmlns:dc="http://purl.org/dc/elements/1.1/"
   xmlns:cc="http://creativecommons.org/ns#"
   xmlns:rdf="http://www.w3.org/1999/02/22-rdf-syntax-ns#"
   xmlns:svg="http://www.w3.org/2000/svg"
   xmlns="http://www.w3.org/2000/svg"
   xml:space="preserve"
   enable-background="new 0 0 400 300"
   viewBox="0 0 484.87601 125"
   height="100pt"
   width="387.90082pt"
   y="0px"
   x="0px"
   id="honda"
   version="1.1"><metadata
     id="metadata132"><rdf:RDF><cc:Work
         rdf:about=""><dc:format>image/svg+xml</dc:format><dc:type
           rdf:resource="http://purl.org/dc/dcmitype/StillImage" /><dc:title></dc:title></cc:Work></rdf:RDF></metadata><defs
     id="defs130" /><g
     style="fill:#999999"
     id="g3552"
     transform="translate(42.664011,-82.2985)"><polygon
       style="fill:#999999"
       points="65.536,166.447 65.536,164.436 48.357,164.436 48.357,166.447 55.669,166.447 55.669,182.348 58.228,182.348 58.228,166.447 "
       id="polygon86" /><path
       style="fill:#999999"
       d="m 75.038,169.005 c -2.375,0 -4.385,0.915 -5.482,2.74 l 0,-7.31 -2.559,0 0,17.912 2.559,0 0,-6.033 c 0,-4.021 2.558,-5.664 5.117,-5.664 2.376,0 3.839,1.277 3.839,4.57 l 0,7.127 2.557,0 0,-7.313 c 0,-4.2 -2.557,-6.029 -6.031,-6.029 z"
       id="path88" /><path
       style="fill:#999999"
       d="m 91.48,169.014 c -4.57,0 -7.493,2.561 -7.493,7.127 0,4.023 2.742,6.582 7.493,6.582 3.106,0 6.214,-1.098 6.762,-4.205 l -2.742,0 c -0.548,1.828 -2.009,2.561 -4.202,2.561 -2.926,0 -4.568,-2.012 -4.753,-4.57 l 11.88,0 0,-0.729 c -10e-4,-4.389 -2.376,-6.766 -6.945,-6.766 z m -4.751,5.849 c 0.363,-2.924 2.191,-4.203 4.751,-4.203 2.191,0 4.385,1.279 4.385,4.203 l -9.136,0 z"
       id="path90" /><path
       style="fill:#999999"
       d="m 190.364,172.111 -0.182,-2.561 -2.375,0 c 0,0.914 0.184,1.829 0.184,2.924 l 0,9.871 2.375,0 0,-6.216 c 0,-3.104 1.463,-4.749 4.571,-4.749 0.366,0 0.912,0 1.826,0.184 l 0,-2.192 c -0.366,-0.185 -0.731,-0.185 -1.46,-0.185 -2.379,-0.001 -4.024,1.28 -4.939,2.924 z"
       id="path92" /><path
       style="fill:#999999"
       d="m 266.211,172.111 0,-2.561 -2.376,0 0,2.924 0,9.871 2.558,0 0,-6.216 c 0,-3.104 1.463,-4.749 4.387,-4.749 0.551,0 1.097,0 2.014,0.184 l 0,-2.192 c -0.367,-0.185 -0.732,-0.185 -1.646,-0.185 -2.378,-0.001 -3.842,1.28 -4.937,2.924 z"
       id="path94" /><polygon
       style="fill:#999999"
       points="161.666,180.516 157.28,169.549 153.991,169.549 149.604,180.516 145.584,169.549 142.659,169.549 147.777,182.346 151.249,182.346 155.452,171.563 160.022,182.346 163.311,182.346 168.428,169.549 165.688,169.549 "
       id="polygon96" /><path
       style="fill:#999999"
       d="m 116.526,164.443 -7.677,0 0,17.914 2.561,0 0,-6.947 5.483,0 c 4.75,0 6.944,-2.375 6.944,-5.664 -0.001,-3.107 -1.829,-5.484 -7.311,-5.303 z m 0.183,8.957 -5.3,0 0,-7.127 5.117,0 c 3.473,0 4.568,1.463 4.568,3.473 0,2.375 -1.095,3.654 -4.385,3.654 z"
       id="path98" /><path
       style="fill:#999999"
       d="m 133.163,169.014 c -5.119,0 -7.858,2.742 -7.858,6.947 0,4.385 2.739,6.762 7.858,6.762 5.301,0 8.04,-2.377 8.04,-6.762 0,-4.387 -2.557,-6.947 -8.04,-6.947 z m 0,12.064 c -3.473,0 -5.299,-2.377 -5.299,-5.116 0,-3.108 1.827,-5.302 5.299,-5.302 3.654,0 5.483,2.191 5.483,5.302 0,2.739 -1.829,5.116 -5.483,5.116 z"
       id="path100" /><path
       style="fill:#999999"
       d="m 177.208,169.014 c -4.568,0 -7.311,2.561 -7.311,7.127 0,4.023 2.56,6.582 7.311,6.582 3.108,0 6.214,-1.098 6.762,-4.205 l -2.557,0 c -0.548,1.828 -2.194,2.561 -4.388,2.561 -2.925,0 -4.386,-2.012 -4.751,-4.57 l 12.062,0 0,-0.729 c 0,-4.389 -2.56,-6.766 -7.128,-6.766 z m -4.751,5.849 c 0.366,-2.924 2.193,-4.203 4.75,-4.203 2.194,0 4.388,1.279 4.388,4.203 l -9.138,0 z"
       id="path102" /><path
       style="fill:#999999"
       d="m 281.557,169.014 c -4.572,0 -7.494,2.561 -7.494,7.127 0,4.023 2.743,6.582 7.312,6.582 3.289,0 6.396,-1.098 6.944,-4.205 l -2.742,0 c -0.547,1.828 -2.01,2.561 -4.202,2.561 -2.926,0 -4.567,-2.012 -4.751,-4.57 l 11.878,0 0,-0.729 c -0.001,-4.389 -2.376,-6.766 -6.945,-6.766 z m -4.751,5.849 c 0.179,-2.924 2.19,-4.203 4.751,-4.203 2.192,0 4.385,1.279 4.385,4.203 l -9.136,0 z"
       id="path104" /><path
       style="fill:#999999"
       d="m 224.35,169.005 0,0.548 -3.289,0 0,1.646 3.289,0 0,11.15 2.375,0 0,-11.15 5.303,0 0,-1.646 -5.303,0 0,-1.094 c 0,-2.01 0.913,-2.74 2.922,-2.74 0.552,0 1.463,0.182 2.746,0.364 l 0,-1.827 c -0.916,-0.184 -2.013,-0.184 -3.291,-0.184 -3.657,0 -4.752,1.826 -4.752,4.933 z"
       id="path106" /><path
       style="fill:#999999"
       d="m 211.921,169.014 c -5.118,0 -8.044,2.742 -8.044,6.947 0,4.385 2.742,6.762 8.044,6.762 5.114,0 8.04,-2.377 8.04,-6.762 0,-4.387 -2.742,-6.947 -8.04,-6.947 z m 0,12.064 c -3.476,0 -5.302,-2.377 -5.302,-5.116 0,-3.108 1.826,-5.302 5.302,-5.302 3.653,0 5.298,2.191 5.298,5.302 0,2.739 -1.828,5.116 -5.298,5.116 z"
       id="path108" /><path
       style="fill:#999999"
       d="m 326.16,169.014 c -2.559,0 -4.387,1.83 -4.936,3.108 -0.729,-2.009 -2.742,-3.108 -4.566,-3.108 -1.83,0 -3.655,0.914 -4.756,2.742 l -0.184,-2.193 -2.372,0 c 0,0.914 0.181,1.828 0.181,2.924 l 0,9.871 2.375,0 0,-6.217 c 0,-3.834 2.195,-5.48 4.205,-5.48 2.01,0 3.104,1.463 3.104,5.117 l 0,6.58 2.562,0 0,-6.217 c 0,-4.566 2.742,-5.48 4.021,-5.48 2.56,0 3.292,1.826 3.292,5.117 l 0,6.58 2.374,0 0,-7.494 c 0,-4.204 -2.195,-5.85 -5.3,-5.85 z"
       id="path110" /><path
       style="fill:#999999"
       d="m 344.627,175.41 -4.205,-0.911 c -1.825,-0.366 -2.742,-0.731 -2.742,-1.829 0,-1.277 1.467,-2.01 3.842,-2.01 1.826,0 3.474,0.549 3.656,2.191 l 2.555,0 c 0,-3.105 -3.472,-3.838 -6.211,-3.838 -3.291,0 -6.217,1.1 -6.217,4.021 0,2.011 1.463,2.926 3.475,3.287 l 4.021,0.732 c 1.277,0.366 2.74,0.73 2.74,1.83 0,1.461 -1.463,2.191 -4.203,2.191 -2.189,0 -3.837,-0.73 -4.203,-2.377 l -2.56,0 c 0.184,2.925 2.926,4.021 6.579,4.021 4.754,0 7.129,-1.279 7.129,-4.021 -0.001,-2.006 -1.28,-2.92 -3.656,-3.287 z"
       id="path112" /><path
       style="fill:#999999"
       d="m 250.13,164.436 -7.673,0 0,17.912 7.673,0 c 6.399,0 10.054,-3.291 10.054,-8.957 0,-5.847 -3.106,-8.955 -10.054,-8.955 z m -0.366,15.901 -4.568,0 0,-14.073 4.205,0 c 6.397,0 8.041,2.379 8.041,7.127 -0.001,3.656 -1.462,6.946 -7.678,6.946 z"
       id="path114" /><path
       style="fill:#999999"
       d="m 298.92,169.014 c -2.741,0 -6.031,0.731 -6.396,3.838 l 2.741,0 c 0.185,-1.277 1.464,-2.191 3.655,-2.191 2.191,0 3.655,0.914 3.655,3.107 l 0,0.547 -1.464,0 c -2.926,0 -9.502,-0.182 -9.502,4.203 0,2.561 2.191,4.205 5.481,4.205 2.558,0 4.204,-0.183 5.483,-2.195 l 0.183,1.83 2.372,0 0,-2.559 0,-6.216 c 0.002,-3.106 -2.552,-4.569 -6.208,-4.569 z m 3.656,7.677 c 0,3.107 -1.646,4.387 -4.756,4.387 -2.556,0 -3.471,-1.098 -3.471,-2.561 0,-2.74 5.116,-2.557 6.946,-2.557 l 1.279,0 0.002,0.731 0,0 z"
       id="path116" /><path
       style="fill:#999999"
       d="m 373.861,142.872 c -1.826,-0.183 -2.922,-2.009 -4.385,-4.203 l -18.275,-27.962 c -0.731,-1.096 -1.83,-2.377 -3.655,-2.377 l -31.255,0 0,5.668 7.127,0.729 c 1.463,0.183 2.561,1.828 1.463,3.472 l -13.708,22.479 c -0.362,0.365 -1.092,2.012 -2.922,2.377 l -5.666,0.549 0,5.48 26.135,0 0,-5.48 -4.567,-0.549 c -1.83,-0.184 -2.926,-1.461 -1.83,-3.289 l 2.014,-3.108 25.036,0 1.646,2.559 c 1.825,2.557 0,3.655 -2.191,3.838 l -4.387,0.549 0,5.48 35.271,0 0,-5.664 -5.851,-0.548 z m -45.142,-13.525 7.86,-12.426 8.04,12.426 -15.9,0 z"
       id="path118" /><path
       style="fill:#999999"
       d="m 305.859,128.07 c 0,-10.601 -8.043,-19.741 -26.683,-19.741 l -40.206,0 0,5.668 4.937,0.365 c 2.009,0.365 2.74,1.646 2.74,3.472 l 0,21.932 c 0,1.645 -0.731,3.106 -2.379,3.291 l -5.298,0.73 0,5.298 40.207,0 c 18.639,0 26.682,-8.952 26.682,-21.015 z m -43.313,13.159 0,-25.041 c 0,0.002 10.417,0.002 10.417,0.002 10.053,0 14.073,2.192 14.073,12.61 0,10.235 -4.021,12.428 -14.073,12.428 l -10.417,0 z"
       id="path120" /><path
       style="fill:#999999"
       d="m 52.549,143.604 -5.665,-0.549 c -1.279,-0.184 -2.557,-0.912 -2.557,-3.654 l 0,-6.58 25.22,0 0,6.214 c 0,1.828 -0.364,3.652 -2.559,3.836 l -5.666,0.548 0,5.665 32.714,0 0,-5.664 -5.847,-0.548 c -1.098,-0.183 -2.375,-1.099 -2.375,-3.29 l 0,-21.2 c 0,-2.192 0.729,-3.655 2.556,-3.838 l 5.666,-0.546 0,-5.668 -32.714,0 0,5.485 5.666,0.729 c 2.011,0.183 2.559,1.827 2.559,3.838 l 0,6.214 -25.22,0 0,-6.396 c 0,-2.377 1.095,-3.474 2.74,-3.657 l 5.482,-0.546 0,-5.668 -32.53,0 0,5.668 5.482,0.546 c 2.011,0.183 2.743,1.827 2.56,3.838 l 0,20.652 c 0,2.375 -0.549,3.837 -2.742,4.021 l -5.483,0.549 0,5.48 32.713,0 0,-5.479 z"
       id="path122" /><path
       style="fill:#999999"
       d="m 162.206,128.622 c 0,-12.793 -10.417,-21.748 -33.263,-21.748 -23.026,0 -33.445,8.955 -33.445,21.748 0,12.979 10.419,21.931 33.445,21.931 22.847,0 33.263,-8.953 33.263,-21.931 z m -47.883,0 c 0,-10.599 5.301,-14.073 14.621,-14.073 9.139,0 14.439,3.474 14.439,14.073 0,10.784 -5.3,14.256 -14.439,14.256 -9.32,0 -14.621,-3.472 -14.621,-14.256 z"
       id="path124" /><path
       style="fill:#999999"
       d="m 209.543,113.814 5.668,0.729 c 2.007,0.183 2.373,2.011 2.373,3.838 l 0,20.105 -21.384,-28.33 c -0.912,-1.095 -2.008,-1.826 -3.47,-1.826 l -28.694,0 0,5.667 5.299,0.546 c 2.011,0.366 2.742,1.281 2.742,3.84 l 0,20.652 c 0,2.561 -0.731,3.654 -2.742,4.021 l -5.299,0.549 0,5.48 0.001,-0.002 25.952,0 0,-5.48 -5.484,-0.549 c -1.645,-0.184 -2.559,-1.461 -2.559,-3.474 l 0,-20.65 21.567,28.51 c 0.729,1.094 2.19,1.643 3.47,1.643 l 20.47,0 0,-30.883 c 0,-1.462 0.366,-3.474 2.375,-3.657 l 5.668,-0.546 0,-5.668 -25.952,0 0,5.485 z"
       id="path126" /></g></svg>