<?xml version="1.0" encoding="UTF-8" standalone="no"?>
<svg
   xmlns:dc="http://purl.org/dc/elements/1.1/"
   xmlns:cc="http://creativecommons.org/ns#"
   xmlns:rdf="http://www.w3.org/1999/02/22-rdf-syntax-ns#"
   xmlns:svg="http://www.w3.org/2000/svg"
   xmlns="http://www.w3.org/2000/svg"
   xml:space="preserve"
   enable-background="new 0 0 400 300"
   viewBox="0 0 400 300"
   y="0px"
   x="0px"
   id="logo"
   version="1.1"><metadata
     id="metadata22"><rdf:RDF><cc:Work
         rdf:about=""><dc:format>image/svg+xml</dc:format><dc:type
           rdf:resource="http://purl.org/dc/dcmitype/StillImage" /><dc:title></dc:title></cc:Work></rdf:RDF></metadata><defs
     id="defs20" /><g
     style="fill:#999999"
     id="g8137"><path
       style="fill:#999999"
       id="logo_2_"
       fill="#61849C"
       d="M210.55035,181.91199h2.09839v20.45288h-1.99078l-12.61407-17.36243v17.36243h-2.09839  v-20.45288h2.37415l12.23071,16.86475V181.91199z M220.0434,192.78748h11.0705v-2.04462h-11.0705v-6.75934h11.34625v-2.07153  h-13.52539v20.45288h13.63635v-1.98749H220.0434V192.78748z M234.67346,183.98248h7.67401v18.3847h2.1825v-18.3847h7.67401v-2.07147  h-17.53052V183.98248z M275.30408,198.83051l-5.4646-16.91852h-1.87646l-5.49493,16.91852l-5.38055-16.91852h-2.23627  l6.5979,20.59076h1.90338l5.49487-17.02948l5.52179,17.02948h1.87311l6.57104-20.59076h-2.09845L275.30408,198.83051z   M305.36365,192.12494c0,7.31421-3.75299,10.57281-10.32397,10.57281c-6.54077,0-10.26678-3.25861-10.26678-10.57281  c0-7.28729,3.72601-10.54254,10.26678-10.54254C301.61066,181.5824,305.36365,184.83765,305.36365,192.12494z M303.18451,192.15186  c0-5.52179-2.56586-8.50128-8.14484-8.50128c-5.54871,0-8.08765,2.97949-8.08765,8.50128c0,5.54871,2.53894,8.53156,8.08765,8.53156  C300.61865,200.68341,303.18451,197.70056,303.18451,192.15186z M320.29736,193.94562l4.94006,8.42059h-2.31702l-4.85596-8.33649  h-6.13049v8.33649h-2.12531v-20.45288h8.83417c4.74835,0,6.90057,1.90338,6.90057,5.96234  C325.5434,191.40668,323.85864,193.47821,320.29736,193.94562z M323.3609,187.9295c0-3.17456-1.73859-4.00183-4.77185-4.00183  h-6.65509v8.11456h6.73578C321.56854,192.04224,323.3609,191.15784,323.3609,187.9295z M345.16803,181.91351h-2.51208  l-10.35083,11.28912v-11.28912h-2.12531v20.45288h2.12531v-6.37933l4.08588-4.46924l7.31421,10.84857h2.45819l-8.33649-12.42236  L345.16803,181.91351z M356.92993,190.77203c-3.64532-0.66248-5.77063-1.1568-5.77063-3.75293  c0-2.42798,1.57379-3.45026,5.24268-3.45026c2.32037,0,4.49951,0.63556,5.96234,1.60071l1.16016-1.7655  c-1.62762-1.10638-3.91772-1.82269-7.1225-1.82269c-4.85931,0-7.39832,1.54358-7.39832,5.49493  c0,4.13629,2.98285,4.88287,7.39832,5.65631c3.67224,0.66248,6.10022,1.07611,6.10022,3.97491  c0,2.8147-1.87646,4.00177-6.10022,4.00177c-2.4549,0-4.85931-0.5246-7.31421-2.06818l-1.10303,1.65454  c2.59277,1.71167,5.38391,2.34387,8.47437,2.34387c5.57562,0,8.1684-1.95715,8.1684-6.01611  C364.6275,192.23492,361.39917,191.57245,356.92993,190.77203z" /><path
       style="fill:#999999"
       id="logo_1_"
       fill="#231F20"
       d="M392.84314,97.66107v6.46002c-2.03113-0.23877-4.2876-0.37329-6.82996-0.37329  c-23.73834,0-23.19696,10.98645-23.19696,24.68671v44.6217h-6.77948v-44.6217c0-18.17621,1.2207-31.05927,29.97644-31.05927  C388.48828,97.37524,390.74811,97.47614,392.84314,97.66107z M104.47693,143.48633c0,13.70026,0.54138,24.68671-23.1936,24.68671  c-23.86951,0-23.73505-10.98645-23.73505-24.00745V98.86462h-6.91736v45.1665c0,17.63141,1.76215,30.51788,30.6524,30.51788  c28.75238,0,29.97644-12.88647,29.97644-31.06268v-44.6217h-6.78284V143.48633z M152.70831,97.37512  c-28.75238,0-29.97314,12.88312-29.97314,31.05933v44.6217h6.77954v-44.6217c0-13.70026-0.5448-24.68671,23.1936-24.68671  c23.86951,0,23.73499,10.98645,23.73499,24.00739v45.30103h6.91742v-45.1665  C183.36072,110.25824,181.59857,97.37512,152.70831,97.37512z M195.94855,173.03961h6.63824V98.98627h-6.63824V173.03961z   M274.67224,122.73883c0,15.29089-7.69421,24.58582-25.0802,24.58582h-27.93518v25.73254h-6.63831V99.00385h34.66766  C266.87714,99.00385,274.67224,107.54883,274.67224,122.73883z M267.71783,123.03479c0-11.7868-6.42303-17.38599-18.22668-17.38599  h-27.83429v35.0174h28.13025C261.76556,140.6662,267.71783,134.82831,267.71783,123.03479z M346.28552,136.97583H289.0498  c0.13446,18.04169,4.60706,31.46954,28.07306,31.46954c12.47955,0,18.17621-3.39307,24.27979-7.86566l3.79333,5.01733  c-6.77954,5.0174-14.77979,8.9519-28.07312,8.9519c-29.29382,0-34.72144-16.95544-34.72144-38.79047  s6.24146-38.65601,34.18341-38.65601C345.47174,97.10248,346.42004,116.49603,346.28552,136.97583z M339.63715,130.73773  c-0.6759-14.78308-1.62762-27.39716-23.19354-27.39716c-20.74884,0-26.4455,11.25885-27.25928,27.39716H339.63715z   M32.17896,158.06592c0,13.6969,0.54144,24.68671-23.1936,24.68671c-0.89789,0-1.74866-0.02356-2.57928-0.05719v6.39618  c0.83398,0.02014,1.69153,0.03363,2.57928,0.03363c28.75238,0,29.9765-12.88312,29.9765-31.05933V98.86627h-6.7829V158.06592z" /></g></svg>