<?xml version="1.0" encoding="UTF-8" standalone="no"?>
<svg
   xmlns:dc="http://purl.org/dc/elements/1.1/"
   xmlns:cc="http://creativecommons.org/ns#"
   xmlns:rdf="http://www.w3.org/1999/02/22-rdf-syntax-ns#"
   xmlns:svg="http://www.w3.org/2000/svg"
   xmlns="http://www.w3.org/2000/svg"
   xml:space="preserve"
   enable-background="new 0 0 400 300"
   viewBox="0 0 511.43707 125"
   y="0px"
   x="0px"
   id="logo"
   version="1.1"
   width="409.14966pt"
   height="100pt"><metadata
     id="metadata22"><rdf:RDF><cc:Work
         rdf:about=""><dc:format>image/svg+xml</dc:format><dc:type
           rdf:resource="http://purl.org/dc/dcmitype/StillImage" /><dc:title></dc:title></cc:Work></rdf:RDF></metadata><defs
     id="defs20" /><g
     style="fill:#999999"
     id="g8137"
     transform="translate(56.093926,-87.400105)"><path
       style="fill:#999999"
       id="logo_2_"
       d="m 210.55035,181.91199 2.09839,0 0,20.45288 -1.99078,0 -12.61407,-17.36243 0,17.36243 -2.09839,0 0,-20.45288 2.37415,0 12.23071,16.86475 0,-16.86475 z m 9.49305,10.87549 11.0705,0 0,-2.04462 -11.0705,0 0,-6.75934 11.34625,0 0,-2.07153 -13.52539,0 0,20.45288 13.63635,0 0,-1.98749 -11.45721,0 0,-7.5899 z m 14.63006,-8.805 7.67401,0 0,18.3847 2.1825,0 0,-18.3847 7.67401,0 0,-2.07147 -17.53052,0 0,2.07147 z m 40.63062,14.84803 -5.4646,-16.91852 -1.87646,0 -5.49493,16.91852 -5.38055,-16.91852 -2.23627,0 6.5979,20.59076 1.90338,0 5.49487,-17.02948 5.52179,17.02948 1.87311,0 6.57104,-20.59076 -2.09845,0 -5.41083,16.91852 z m 30.05957,-6.70557 c 0,7.31421 -3.75299,10.57281 -10.32397,10.57281 -6.54077,0 -10.26678,-3.25861 -10.26678,-10.57281 0,-7.28729 3.72601,-10.54254 10.26678,-10.54254 6.57098,0 10.32397,3.25525 10.32397,10.54254 z m -2.17914,0.0269 c 0,-5.52179 -2.56586,-8.50128 -8.14484,-8.50128 -5.54871,0 -8.08765,2.97949 -8.08765,8.50128 0,5.54871 2.53894,8.53156 8.08765,8.53156 5.57898,-1e-5 8.14484,-2.98286 8.14484,-8.53156 z m 17.11285,1.79376 4.94006,8.42059 -2.31702,0 -4.85596,-8.33649 -6.13049,0 0,8.33649 -2.12531,0 0,-20.45288 8.83417,0 c 4.74835,0 6.90057,1.90338 6.90057,5.96234 2e-5,3.53101 -1.68474,5.60254 -5.24602,6.06995 z m 3.06354,-6.01612 c 0,-3.17456 -1.73859,-4.00183 -4.77185,-4.00183 l -6.65509,0 0,8.11456 6.73578,0 c 2.8988,10e-6 4.69116,-0.88439 4.69116,-4.11273 z m 21.80713,-6.01599 -2.51208,0 -10.35083,11.28912 0,-11.28912 -2.12531,0 0,20.45288 2.12531,0 0,-6.37933 4.08588,-4.46924 7.31421,10.84857 2.45819,0 -8.33649,-12.42236 7.34112,-8.03052 z m 11.7619,8.85852 c -3.64532,-0.66248 -5.77063,-1.1568 -5.77063,-3.75293 0,-2.42798 1.57379,-3.45026 5.24268,-3.45026 2.32037,0 4.49951,0.63556 5.96234,1.60071 l 1.16016,-1.7655 c -1.62762,-1.10638 -3.91772,-1.82269 -7.1225,-1.82269 -4.85931,0 -7.39832,1.54358 -7.39832,5.49493 0,4.13629 2.98285,4.88287 7.39832,5.65631 3.67224,0.66248 6.10022,1.07611 6.10022,3.97491 0,2.8147 -1.87646,4.00177 -6.10022,4.00177 -2.4549,0 -4.85931,-0.5246 -7.31421,-2.06818 l -1.10303,1.65454 c 2.59277,1.71167 5.38391,2.34387 8.47437,2.34387 5.57562,0 8.1684,-1.95715 8.1684,-6.01611 -10e-6,-4.38848 -3.22834,-5.05095 -7.69758,-5.85137 z" /><path
       style="fill:#999999"
       id="logo_1_"
       d="m 392.84314,97.66107 0,6.46002 c -2.03113,-0.23877 -4.2876,-0.37329 -6.82996,-0.37329 -23.73834,0 -23.19696,10.98645 -23.19696,24.68671 l 0,44.6217 -6.77948,0 0,-44.6217 c 0,-18.17621 1.2207,-31.05927 29.97644,-31.05927 2.4751,0 4.73493,0.1009 6.82996,0.28583 z m -288.36621,45.82526 c 0,13.70026 0.54138,24.68671 -23.1936,24.68671 -23.86951,0 -23.73505,-10.98645 -23.73505,-24.00745 l 0,-45.30097 -6.91736,0 0,45.1665 c 0,17.63141 1.76215,30.51788 30.6524,30.51788 28.75238,0 29.97644,-12.88647 29.97644,-31.06268 l 0,-44.6217 -6.78284,0 0,44.62171 z m 48.23138,-46.11121 c -28.75238,0 -29.97314,12.88312 -29.97314,31.05933 l 0,44.6217 6.77954,0 0,-44.6217 c 0,-13.70026 -0.5448,-24.68671 23.1936,-24.68671 23.86951,0 23.73499,10.98645 23.73499,24.00739 l 0,45.30103 6.91742,0 0,-45.1665 c 0,-17.63142 -1.76215,-30.51454 -30.65241,-30.51454 z m 43.24024,75.66449 6.63824,0 0,-74.05334 -6.63824,0 0,74.05334 z m 78.72369,-50.30078 c 0,15.29089 -7.69421,24.58582 -25.0802,24.58582 l -27.93518,0 0,25.73254 -6.63831,0 0,-74.05334 34.66766,0 c 17.19093,0 24.98603,8.54498 24.98603,23.73498 z m -6.95441,0.29596 c 0,-11.7868 -6.42303,-17.38599 -18.22668,-17.38599 l -27.83429,0 0,35.0174 28.13025,0 c 11.97845,0 17.93072,-5.83789 17.93072,-17.63141 z m 78.56769,13.94104 -57.23572,0 c 0.13446,18.04169 4.60706,31.46954 28.07306,31.46954 12.47955,0 18.17621,-3.39307 24.27979,-7.86566 l 3.79333,5.01733 c -6.77954,5.0174 -14.77979,8.9519 -28.07312,8.9519 -29.29382,0 -34.72144,-16.95544 -34.72144,-38.79047 0,-21.83503 6.24146,-38.65601 34.18341,-38.65601 28.88691,2e-5 29.83521,19.39357 29.70069,39.87337 z m -6.64837,-6.2381 c -0.6759,-14.78308 -1.62762,-27.39716 -23.19354,-27.39716 -20.74884,0 -26.4455,11.25885 -27.25928,27.39716 l 50.45282,0 z M 32.17896,158.06592 c 0,13.6969 0.54144,24.68671 -23.1936,24.68671 -0.89789,0 -1.74866,-0.0236 -2.57928,-0.0572 l 0,6.39618 c 0.83398,0.0201 1.69153,0.0336 2.57928,0.0336 28.75238,0 29.9765,-12.88312 29.9765,-31.05933 l 0,-59.19965 -6.7829,0 0,59.19965 z" /></g></svg>