<?xml version="1.0" encoding="UTF-8" standalone="no"?>
<svg
   xmlns:dc="http://purl.org/dc/elements/1.1/"
   xmlns:cc="http://creativecommons.org/ns#"
   xmlns:rdf="http://www.w3.org/1999/02/22-rdf-syntax-ns#"
   xmlns:svg="http://www.w3.org/2000/svg"
   xmlns="http://www.w3.org/2000/svg"
   xml:space="preserve"
   enable-background="new 0 0 400 300"
   viewBox="0 0 481.50101 125"
   height="100pt"
   width="385.20081pt"
   y="0px"
   x="0px"
   id="netflix"
   version="1.1"><metadata
     id="metadata1687"><rdf:RDF><cc:Work
         rdf:about=""><dc:format>image/svg+xml</dc:format><dc:type
           rdf:resource="http://purl.org/dc/dcmitype/StillImage" /><dc:title></dc:title></cc:Work></rdf:RDF></metadata><defs
     id="defs1685" /><path
     style="fill:#999999"
     d="m 337.745,101.572 c 4.941,0.367 10.066,0.916 14.824,1.102 l 0,-87.846998 -14.824,0 0,86.744998 z M 96.173004,68.814002 l -19.397,-54.169 -14.276,0 0,95.711998 c 4.941,-0.549 10.064,-1.465 14.823,-2.012 l 0,-52.158998 17.386,50.146998 C 100.2,105.784 105.507,105.231 110.997,104.687 l 0,-90.041998 -14.823996,0 0,54.169 z M 125.822,103.219 c 13.726,-1.096 27.816,-2.379 41.726,-3.109 l 0,-14.823998 c -8.968,0.548997 -17.751,1.099997 -26.719,1.647997 l 0,-22.327997 c 5.672,0 13.542,-0.365 20.313,-0.365 l 0,-14.824 c -5.49,0 -14.092,0 -20.313,0.365 l 0,-20.131 26.719,0 0,-14.824 -41.726,0 0,88.391998 z m 51.241,-73.567998 15.739,0 0,68.993997 c 4.941,-0.365 10.066,-0.365 14.824,-0.549 l 0,-68.811997 15.738,0 0,-14.641 -46.302,0 0,15.008 z m 56.002,68.444997 14.823,0 0,-34.405997 20.498,0 0,-14.64 -20.313,0 0,-19.398 26.9,0 0,-14.824 -41.91,0 0.002,83.267997 0,0 z m 185.936,-83.450997 -16.652,0 -10.799,25.256 -9.699,-25.256 -16.471,0 17.387,45.02 L 363.734,103.77 c 5.123,0.549 10.615,1.1 15.738,1.646 L 390.634,79.611002 401.435,107.978 c 5.672,0.912 11.527,1.461 17.199,2.377 0,0 -12.738,-33.880998 -19.215,-50.325998 l 19.582,-45.384 z m -119.504,0 -14.824,0 0,83.999997 c 13.727,0.551 27.27,1.1 40.627,2.016001 l 0,-14.826001 c -8.602,-0.548997 -17.201,-1.095997 -25.803,-1.462997 l 0,-69.727 0,0 z"
     id="netflix_1_" /></svg>