<?xml version="1.0" encoding="UTF-8" standalone="no"?>
<svg
   xmlns:dc="http://purl.org/dc/elements/1.1/"
   xmlns:cc="http://creativecommons.org/ns#"
   xmlns:rdf="http://www.w3.org/1999/02/22-rdf-syntax-ns#"
   xmlns:svg="http://www.w3.org/2000/svg"
   xmlns="http://www.w3.org/2000/svg"
   xml:space="preserve"
   enable-background="new -24.27 -20.608 400 300"
   viewBox="-24.27 -20.608 338.54698 125"
   height="100pt"
   width="270.83759pt"
   y="0px"
   x="0px"
   id="nvidia_x5F_logo"
   version="1.1"><metadata
     id="metadata1698"><rdf:RDF><cc:Work
         rdf:about=""><dc:format>image/svg+xml</dc:format><dc:type
           rdf:resource="http://purl.org/dc/dcmitype/StillImage" /><dc:title>generated by pstoedit version:3.44 from NVBadge_2D.eps</dc:title></cc:Work></rdf:RDF></metadata><defs
     id="defs1696" /><title
     id="title4">generated by pstoedit version:3.44 from NVBadge_2D.eps</title><g
     style="fill:#808080"
     id="g5891"
     transform="matrix(0.79497323,0,0,0.79497323,3.5288467,-60.763688)"><path
       style="fill:#808080"
       id="path17"
       d="m 283.245,202.775 c 0,2.291 -1.683,3.829 -3.674,3.829 l 0,-0.014 c -2.049,0.014 -3.7,-1.524 -3.7,-3.815 0,-2.289 1.651,-3.823 3.7,-3.823 1.992,-0.001 3.674,1.533 3.674,3.823 z m 1.49,0 c 0,-3.145 -2.442,-4.97 -5.164,-4.97 -2.741,0 -5.184,1.825 -5.184,4.97 0,3.143 2.443,4.975 5.184,4.975 2.721,0 5.164,-1.832 5.164,-4.975 m -6.022,0.421 0.554,0 1.281,2.249 1.407,0 -1.419,-2.344 c 0.733,-0.053 1.336,-0.402 1.336,-1.39 0,-1.228 -0.846,-1.621 -2.278,-1.621 l -2.072,0 0,5.354 1.191,0 0,-2.248 m 0,-0.907 0,-1.289 0.829,0 c 0.45,0 1.065,0.036 1.065,0.586 0,0.599 -0.318,0.703 -0.85,0.703 l -1.044,0" /><path
       style="fill:#808080"
       id="path19"
       d="m 249.955,175.383 6.439,17.617 -13.078,0 6.639,-17.617 z m -6.896,-6.859 -14.841,37.598 10.479,0 2.347,-6.643 17.562,0 2.222,6.643 11.376,0 -14.95,-37.603 -14.195,0.005 z m -29.793,37.612 10.631,0 0,-37.624 -10.633,-0.002 0.002,37.626 z m -73.803,-37.626 -8.87,29.819 -8.497,-29.817 -11.471,-0.002 12.135,37.626 15.316,0 12.233,-37.626 -10.846,0 z m 42.972,8.193 4.568,0 c 6.63,0 10.917,2.977 10.917,10.699 0,7.725 -4.287,10.701 -10.917,10.701 l -4.568,0 0,-21.4 z m -10.541,-8.193 0,37.626 17.235,0 c 9.183,0 12.182,-1.527 15.424,-4.951 2.29,-2.404 3.771,-7.681 3.771,-13.448 0,-5.29 -1.254,-10.006 -3.439,-12.944 -3.938,-5.256 -9.609,-6.282 -18.076,-6.282 l -14.915,0 z m -100.706,-0.052 0,37.679 10.721,0 0,-28.609 8.307,0.002 c 2.75,0 4.711,0.686 6.036,2.101 1.68,1.789 2.366,4.679 2.366,9.962 l 0,16.545 10.389,0 0,-20.818 c 0,-14.857 -9.47,-16.86 -18.736,-16.86 l -19.083,0 z m 83.596,0.052 0.004,37.626 10.626,0 0,-37.626 -10.63,0 z" /><path
       style="fill:#808080"
       id="path21"
       d="m 99.759,93.592 c 0,0 13.673,-20.174 40.975,-22.261 l 0,-7.319 c -30.24,2.429 -56.426,28.04 -56.426,28.04 0,0 14.831,42.876 56.426,46.802 l 0,-7.779 C 110.21,127.233 99.759,93.592 99.759,93.592 Z m 40.975,22.009 0,7.125 c -23.069,-4.113 -29.473,-28.094 -29.473,-28.094 0,0 11.076,-12.271 29.473,-14.261 l 0,7.818 c -0.014,0 -0.024,-0.004 -0.035,-0.004 -9.655,-1.159 -17.198,7.86 -17.198,7.86 0,0 4.227,15.186 17.233,19.556 m 0,-65.089 0,13.5 c 0.888,-0.068 1.775,-0.125 2.668,-0.156 34.379,-1.159 56.779,28.195 56.779,28.195 0,0 -25.728,31.284 -52.531,31.284 -2.457,0 -4.756,-0.228 -6.917,-0.61 l 0,8.349 c 1.847,0.234 3.762,0.372 5.761,0.372 24.942,0 42.98,-12.739 60.446,-27.815 2.896,2.319 14.752,7.961 17.188,10.431 -16.606,13.904 -55.311,25.111 -77.253,25.111 -2.115,0 -4.146,-0.128 -6.143,-0.32 l 0,11.729 94.805,0 0,-100.07 -94.803,0 z m 0,29.86 0,-9.04 c 0.878,-0.062 1.764,-0.108 2.668,-0.137 24.722,-0.777 40.941,21.245 40.941,21.245 0,0 -17.518,24.33 -36.302,24.33 -2.703,0 -5.127,-0.435 -7.308,-1.168 l 0,-27.412 c 9.625,1.163 11.561,5.414 17.348,15.06 L 170.95,92.399 c 0,0 -9.394,-12.32 -25.23,-12.32 -1.721,-10e-4 -3.369,0.12 -4.986,0.293" /></g></svg>