<?xml version="1.0" encoding="UTF-8" standalone="no"?>
<svg
   xmlns:dc="http://purl.org/dc/elements/1.1/"
   xmlns:cc="http://creativecommons.org/ns#"
   xmlns:rdf="http://www.w3.org/1999/02/22-rdf-syntax-ns#"
   xmlns:svg="http://www.w3.org/2000/svg"
   xmlns="http://www.w3.org/2000/svg"
   xml:space="preserve"
   enable-background="new 0 0 400 300"
   viewBox="0 0 518.33389 125"
   y="0px"
   x="0px"
   id="logo"
   version="1.1"
   width="414.66711pt"
   height="100pt"><metadata
     id="metadata1717"><rdf:RDF><cc:Work
         rdf:about=""><dc:format>image/svg+xml</dc:format><dc:type
           rdf:resource="http://purl.org/dc/dcmitype/StillImage" /><dc:title></dc:title></cc:Work></rdf:RDF></metadata><defs
     id="defs1715" /><g
     style="fill:#808080"
     id="g5845"
     transform="translate(59.166906,-87.50052)"><path
       style="fill:#808080"
       d="m 119.29395,154.32733 -29.10773,0 0,39.70099 14.10333,0 0,-12.34625 15.1062,0 c 10.00159,0 13.60254,-5.8916 13.60254,-13.50897 0,-8.84223 -3.70276,-13.84577 -13.70434,-13.84577 z m -5.90186,17.68109 -9.10321,0 0,-8.34216 9.10321,0 c 3.55176,0 4.9024,1.22559 4.9024,4.22742 0,2.8905 -1.35131,4.11474 -4.9024,4.11474 z m 24.2572,-17.68109 37.95752,0 0,9.67297 -23.85419,0 0,5.33832 22.15649,0 0,9.67706 -22.15649,0 0,5.33759 23.85419,0 0,9.67505 -37.95752,0 0,-39.70099 z m 72.96717,0 -29.10638,0 0,39.70099 14.10333,0 0,-12.34625 15.10345,0 c 10.00433,0 13.60602,-5.8916 13.60602,-13.50897 0,-8.84223 -3.70282,-13.84577 -13.70642,-13.84577 z m -5.90058,17.68109 -9.10248,0 0,-8.34216 9.10248,0 c 3.55115,0 4.90247,1.22559 4.90247,4.22742 0,2.8905 -1.35132,4.11474 -4.90247,4.11474 z m 68.71857,9.17224 c 0,9.67841 -7.10223,14.23785 -22.95721,14.23785 -10.85211,0 -22.70575,-1.6676 -22.75494,-13.34497 l 17.00403,0 c 0.0479,1.33289 0.50006,2.22235 1.50159,2.83447 1.0473,0.55676 2.59882,0.83551 4.79858,0.83551 4.40033,0 5.60266,-1.33557 5.60266,-3.22662 0,-1.16754 -0.65173,-2.33435 -2.54822,-2.66638 l -16.10706,-2.67053 c -6.9007,-1.16956 -9.74945,-5.61768 -9.74945,-11.17664 0,-10.28851 9.05267,-13.06622 20.65283,-13.06622 15.9021,0 22.45502,4.6134 22.95581,13.01093 l -16.40491,0 c 0,-1.61298 -0.85059,-2.61584 -2.14856,-3.17126 -1.25092,-0.61011 -2.85016,-0.83209 -4.40234,-0.83209 -4.20081,0 -5.64978,1.16614 -5.64978,2.83582 0,1.11011 0.44812,1.83563 1.84863,2.05701 l 16.85376,2.77911 c 7.10291,1.16753 11.50458,4.83751 11.50458,11.56401 z m 4.59906,-26.85333 14.10266,0 0,39.70099 -14.10266,0 0,-39.70099 z m 33.50873,19.85083 c 0,8.06274 3.55176,11.22992 8.70288,11.22992 4.45221,0 7.10291,-2.05701 8.25336,-6.8385 l 15.90479,0 0,6.7e-4 c -0.90039,5.22693 -2.50311,9.453 -6.00433,12.34344 -3.44867,2.89191 -8.85181,4.50482 -17.45221,4.50482 -8.55194,0 -24.40619,-0.66882 -24.40619,-21.23969 0,-20.57495 15.85425,-21.24243 24.40619,-21.24243 8.49994,0 21.60449,1.22223 23.45654,16.96033 l -15.90411,0 c -0.40039,-2.83856 -2.10352,-6.95258 -7.55243,-6.95258 -5.75435,1e-5 -9.40449,3.1692 -9.40449,11.23402 z m 60.71789,-21.24103 c -8.55463,0 -24.40894,0.66675 -24.40894,21.24237 0,20.57019 15.85425,21.23975 24.40894,21.23975 8.55255,0 24.40686,-0.66888 24.40686,-21.23975 0,-20.57495 -15.85431,-21.24237 -24.40686,-21.24237 z m 6.7e-4,32.47229 c -5.75226,-6.7e-4 -9.40448,-3.16785 -9.40448,-11.22992 0,-8.06543 3.65222,-11.23401 9.40448,-11.23401 5.75018,0 9.40308,3.16925 9.40308,11.23401 0,8.06275 -3.65289,11.22992 -9.40308,11.22992 z"
       id="path1701" /><path
       style="fill:#808080"
       d="M 68.87548,154.72086 C 69.78615,135.67345 53.36006,114.22335 30.96649,111.57197 l 0.03826,-0.26028 c 22.07657,0 39.00069,20.43764 39.00069,36.56109 -0.02117,3.35641 -0.28625,5.43597 -0.759,6.94577 l -0.37096,-0.0977 0,0 z m -1.33764,2.42114 c -1.46881,1.79469 -3.31609,3.60167 -5.48038,5.31709 C 58.07595,139.56 41.24885,119.53634 29.35216,113.69183 l -0.25482,0.17762 c 11.96432,9.81918 26.23433,28.88981 31.7837,49.48801 -2.65479,1.95659 -5.72358,3.75742 -9.11414,5.21941 -11.29003,-12.87498 -21.8156,-37.70541 -25.20753,-53.462 l -0.345,0.10384 c 0.07651,15.29475 10.93547,41.25925 24.17799,53.9286 -2.93899,1.15933 -6.09932,2.06316 -9.41815,2.60217 -12.69394,-5.02879 -21.72952,-21.13516 -21.72952,-37.63435 0,-10.77082 3.28399,-17.43376 3.91933,-18.79736 l -0.27053,-0.10726 c -0.76856,1.16276 -5.57943,7.82227 -5.57943,19.45048 0,18.64981 9.19749,32.90479 21.40843,37.39388 -4.17757,0.45432 -8.57376,0.317 -13.08403,-0.61417 l -0.09086,0.28419 c 1.30622,0.48096 5.73793,2.34123 12.49856,2.34123 15.29135,0 25.62836,-9.50082 29.78954,-16.7226 l -0.29786,-0.20152 0,0 z"
       id="path1703" /><path
       style="fill:#808080"
       d="m 36.51723,104.58179 c -11.59199,0 -25.1843,8.36608 -25.1843,16.01346 0,2.95812 2.70603,5.45715 8.30664,5.45715 13.00137,0 25.08046,-8.93242 25.08046,-15.87819 0,-3.65495 -3.51012,-5.59242 -8.2028,-5.59242 l 0,0 z m 4.62778,5.37653 c 0,5.85475 -11.2429,13.01162 -20.64124,13.01162 -4.15229,0 -6.39582,-1.63414 -6.39582,-4.3306 0,-5.93878 11.37065,-12.97404 20.18625,-12.97404 5.74749,-1e-5 6.85081,2.92464 6.85081,4.29302 l 0,0 z"
       id="path1705" /><path
       style="fill:#808080"
       d="m 6.71471,124.13611 c -0.32587,0.56361 -1.63072,3.11866 -1.63072,5.73656 0,4.85527 4.90583,9.36282 13.92911,9.36282 17.35862,0 37.4137,-12.7773 37.4137,-24.63777 0,-5.32393 -5.03973,-8.21851 -8.53892,-8.81697 l -0.06558,0.20769 c 1.08829,0.34431 5.07525,2.19775 5.07525,6.9403 0,9.45026 -17.70703,22.32662 -35.34506,22.32662 -6.75243,0 -11.00652,-3.33319 -11.00652,-8.18846 0,-1.53576 0.31972,-2.54753 0.40444,-2.84061 l -0.2357,-0.0902 0,0 z"
       id="path1707" /><path
       style="fill:#808080"
       d="m 63.58366,115.48447 c 0.47617,0.3614 3.33523,2.74429 3.33523,7.25047 0,15.36445 -24.07347,30.47271 -45.3562,30.47271 -12.69189,0 -18.47764,-6.26671 -18.22146,-11.83112 l 0.2275,0 c 0.49735,2.88982 4.61822,8.0607 15.72653,8.0607 21.30938,0 45.10207,-15.63293 45.10207,-29.32977 0,-2.34941 -0.63808,-3.81344 -0.99879,-4.4645 l 0.18512,-0.15849 0,0 z"
       id="path1709" /><path
       style="fill:#808080"
       d="m 71.63001,129.82826 c 0.09975,0.32724 0.61827,1.7981 0.61827,4.10175 0,17.09149 -24.36245,31.72359 -45.55091,31.72359 -10.90541,0 -16.6003,-5.29729 -17.80268,-7.44858 l 0.19402,-0.14346 c 3.01755,2.63907 8.96111,4.64417 15.89732,4.64417 18.71334,0 46.63646,-14.23723 46.38711,-32.81529 l 0.25687,-0.0622 0,0 z"
       id="path1711" /></g></svg>