<?xml version="1.0" encoding="UTF-8" standalone="no"?>
<svg
   xmlns:dc="http://purl.org/dc/elements/1.1/"
   xmlns:cc="http://creativecommons.org/ns#"
   xmlns:rdf="http://www.w3.org/1999/02/22-rdf-syntax-ns#"
   xmlns:svg="http://www.w3.org/2000/svg"
   xmlns="http://www.w3.org/2000/svg"
   xml:space="preserve"
   enable-background="new 0 0 400 300"
   viewBox="0 0 494.74875 125"
   height="100pt"
   width="395.79901pt"
   y="0px"
   x="0px"
   id="reebok"
   version="1.1"><metadata
     id="metadata157"><rdf:RDF><cc:Work
         rdf:about=""><dc:format>image/svg+xml</dc:format><dc:type
           rdf:resource="http://purl.org/dc/dcmitype/StillImage" /><dc:title></dc:title></cc:Work></rdf:RDF></metadata><defs
     id="defs155" /><g
     style="fill:#999999"
     id="g3514"
     transform="translate(47.002546,-85.640861)"><g
       style="fill:#999999"
       id="delta"
       transform="matrix(2.2838801,0,0,2.2838801,714.17289,128.79487)"><path
         style="fill:#999999"
         id="path3021"
         d="m -170.051,15.198 6.012,-10.367 0.785,-12.537 -1.348,-0.002 -16.652,28.706 0.704,1.212 10.499,-7.012 z m 1.424,2.429 -11.3,5.648 0.698,1.216 33.179,0.061 0.67,-1.16 -11.328,-5.754 -11.919,-0.011 z m 8.069,-25.327 -1.446,-0.006 0.715,12.538 5.971,10.402 10.555,7.096 0.742,-1.266 -16.537,-28.764 0,0 z" /></g><g
       style="fill:#999999"
       id="reebok_1_"
       transform="matrix(2.2838801,0,0,2.2838801,-702.28199,-150.42683)"><g
         style="fill:#999999"
         id="g138"><g
           style="fill:#999999"
           id="g3025"><g
             style="fill:#999999"
             id="g3031"
             transform="translate(599.9731,123.7541)"><path
               style="fill:#999999"
               id="path3033"
               d="m -187.365,10.923 -0.003,4.278 c -0.009,5.004 -3.441,7.809 -8.231,7.945 l -1.036,0 c -4.792,-0.199 -8.191,-3 -8.182,-7.972 l 0,-4.278 c 0.017,-5.015 3.449,-7.798 8.26,-7.935 0.243,-0.004 0.714,0 0.952,0 4.828,0.153 8.252,2.986 8.24,7.962 m -9.058,-3.811 c -1.888,0.104 -3.701,1.078 -3.708,3.801 l 0,4.288 c -0.008,2.619 1.802,3.673 3.692,3.789 0.096,0.011 0.572,0.011 0.676,0.005 1.853,-0.103 3.688,-1.11 3.692,-3.782 l 0.006,-4.29 c 0.009,-2.693 -1.829,-3.701 -3.711,-3.811 -0.234,-0.016 -0.43,-0.016 -0.647,0" /></g><g
             style="fill:#999999"
             id="g3043"
             transform="translate(603.8603,123.4729)"><path
               style="fill:#999999"
               id="path3037"
               d="m -184.037,11.726 c 0,0 7.035,-8.006 7.454,-8.451 l 5.88,0.015 -8.548,9.658 8.969,9.947 -5.958,-0.009 -7.805,-8.68 -0.015,8.666 -4.731,-0.009 0.044,-24.385 4.728,0.007 -0.018,13.241 z" /></g><g
             style="fill:#999999"
             id="g3039"
             transform="translate(567.8198,121.9379)"><path
               style="fill:#999999"
               id="path3041"
               d="m -214.894,16.111 0.01,-3.451 c 0.013,-5.013 -3.49,-7.82 -8.288,-7.983 l -0.904,-0.005 c -4.83,0.15 -8.264,2.942 -8.267,7.952 l -0.009,4.256 c -0.009,4.774 3.545,7.739 8.139,7.978 0.488,0.009 0.743,-0.003 1.071,0 5.752,0.009 7.903,-2.905 8.167,-6.239 l -4.329,-0.011 c -0.115,0.631 -0.329,2.25 -3.954,2.246 -0.636,-0.008 -1.518,-0.163 -2.151,-0.371 -2.688,-0.901 -2.259,-4.218 -2.259,-4.399 l 12.774,0.027 z m -12.778,-3.807 c 0,-2.578 1.713,-3.582 3.744,-3.662 0.217,-0.006 0.438,-0.011 0.629,0.003 2.059,0.086 3.781,1.173 3.776,3.677 l 0,0.332 -8.156,-0.007 0.007,-0.343 z" /></g><g
             style="fill:#999999"
             id="g3048"
             transform="translate(578.4982,121.9222)"><path
               style="fill:#999999"
               id="path3045"
               d="m -205.752,16.156 0.007,-3.443 c 0.013,-5.013 -3.493,-7.82 -8.295,-7.991 l -0.897,0 c -4.837,0.149 -8.28,2.942 -8.288,7.95 l -0.005,4.26 c -0.009,4.765 3.542,7.742 8.143,7.978 0.501,0.009 0.744,0 1.076,0 5.762,0.009 7.898,-2.912 8.164,-6.237 l -4.304,-0.017 c -0.141,0.633 -0.336,2.25 -3.983,2.244 -0.631,-0.006 -1.504,-0.163 -2.127,-0.373 -2.712,-0.895 -2.267,-4.213 -2.27,-4.392 l 12.779,0.021 z m -12.792,-3.797 c 0.007,-2.586 1.728,-3.592 3.744,-3.668 0.212,-0.007 0.442,-0.004 0.641,0.006 2.051,0.082 3.775,1.171 3.77,3.671 l 0,0.334 -8.16,-0.011 0.005,-0.332 z" /></g><g
             style="fill:#999999"
             id="g3047"
             transform="translate(584.8406,128.0434)"><path
               style="fill:#999999"
               id="path3049"
               d="m -200.321,-1.328 c -2.192,-0.006 -3.694,0.592 -4.52,1.299 l 0.006,-6.127 -4.696,-0.007 -0.039,24.385 0.82,0 c 0,0 2.086,-1.167 2.2,-1.207 0.303,0.321 2.359,1.831 5.203,1.831 0.362,0.004 0.696,0.031 1.049,0.009 4.752,-0.097 8.195,-3.047 8.206,-7.944 l 0.004,-4.255 c 0.008,-4.789 -3.443,-7.98 -8.233,-7.984 m 3.528,12.255 c -0.002,2.669 -1.856,3.673 -3.701,3.794 -0.096,0 -0.587,-0.004 -0.674,-0.009 -1.886,-0.127 -3.696,-1.166 -3.696,-3.792 l 0.011,-4.286 c 0.004,-2.732 1.821,-3.69 3.701,-3.814 0.226,-0.017 0.43,-0.024 0.66,0.001 1.864,0.128 3.707,1.112 3.703,3.826 l -0.004,4.28 z" /></g><g
             style="fill:#999999"
             id="g3051"
             transform="translate(558.0937,117.5499)"><path
               style="fill:#999999"
               id="path3053"
               d="m -223.222,28.644 -9.026,-10.07 c 0.449,0.026 0.895,0.044 1.351,0.044 3.102,0.004 6.963,-1.953 6.968,-6.92 0.017,-5.956 -4.928,-7.447 -9.31,-7.451 l -10.524,-0.026 -0.05,24.382 4.769,0.012 0,-10.883 9.782,10.9 6.04,0.012 z M -239.016,8.4 l 5.719,0.017 c 2.641,0 4.978,0.837 4.978,3.349 -0.007,2.519 -1.466,3.421 -4.991,3.404 l -5.721,-0.004 0.015,-6.766 z" /></g></g></g></g></g></svg>