<?xml version="1.0" encoding="UTF-8" standalone="no"?>
<svg
   xmlns:dc="http://purl.org/dc/elements/1.1/"
   xmlns:cc="http://creativecommons.org/ns#"
   xmlns:rdf="http://www.w3.org/1999/02/22-rdf-syntax-ns#"
   xmlns:svg="http://www.w3.org/2000/svg"
   xmlns="http://www.w3.org/2000/svg"
   xml:space="preserve"
   enable-background="new 0 0 400 300"
   viewBox="0 0 484.0919 125.00001"
   height="100pt"
   width="387.2735pt"
   y="0px"
   x="0px"
   id="samsung"
   version="1.1"><metadata
     id="metadata8"><rdf:RDF><cc:Work
         rdf:about=""><dc:format>image/svg+xml</dc:format><dc:type
           rdf:resource="http://purl.org/dc/dcmitype/StillImage" /><dc:title></dc:title></cc:Work></rdf:RDF></metadata><defs
     id="defs6" /><g
     style="fill:#999999"
     id="g3336"
     transform="translate(41.046552,-87.612101)"><path
       style="fill:#999999"
       id="samsung_1_"
       d="M 380.323,118.883 C 375.446,90.844 291.209,82.091 192.167,99.351 c -43.235,7.529 -82.142,18.765 -111.854,31.369 1.581,-0.374 3.318,-0.55 5.155,-0.55 5.259,0 12.517,1.264 12.517,9.35 l 0,2.608 -9.257,0 c 0,0 0,-1.61 0,-2.292 0,-2.026 -1.283,-3.371 -3.452,-3.371 -2.324,0 -3.138,1.306 -3.394,2.493 -0.087,0.42 -0.137,1.21 0.04,1.957 1.05,4.346 15.141,6.665 16.707,14.435 0.153,0.795 0.489,2.895 0.041,6.1 -0.88,6.188 -6.411,8.482 -13.125,8.482 -6.983,0 -13.499,-2.496 -13.499,-10.771 l 0.007,-2.878 9.957,0 0,3.595 c 0,2.037 1.412,3.37 3.739,3.37 2.469,0 3.308,-1.256 3.617,-2.492 0.17,-0.697 0.281,-1.854 -0.082,-2.755 -1.909,-4.804 -15.097,-7 -16.719,-14.585 -0.391,-1.865 -0.351,-3.352 -0.083,-5.02 0.423,-2.596 1.665,-4.475 3.461,-5.779 -35.717,15.802 -56.912,33.529 -54.268,48.715 4.883,28.046 89.135,36.799 188.173,19.548 44.229,-7.703 83.914,-19.287 113.87,-32.245 -1.57,0.383 -3.274,0.563 -5.034,0.563 -6.592,0 -12.443,-2.411 -13.066,-9.165 -0.108,-1.24 -0.123,-1.753 -0.136,-2.446 l 0.008,-15.633 c 0,-0.659 0.081,-1.826 0.154,-2.446 0.824,-6.938 6.448,-9.173 13.04,-9.173 6.588,0 12.353,2.223 13.029,9.173 0.123,1.183 0.085,2.446 0.085,2.446 l 0,1.236 -9.361,0 0,-2.078 c 0.007,0.005 -0.012,-0.885 -0.124,-1.413 -0.152,-0.82 -0.87,-2.705 -3.698,-2.705 -2.703,0 -3.497,1.78 -3.697,2.705 -0.115,0.489 -0.154,1.151 -0.154,1.753 l 0,16.979 c -0.008,0.471 0.016,0.985 0.093,1.413 0.162,0.994 1.095,2.689 3.783,2.689 2.688,0 3.629,-1.699 3.803,-2.689 0.065,-0.428 0.088,-0.942 0.08,-1.413 l 0,-5.391 -3.806,0 0,-5.42 13.16,0 0,9.966 c -0.008,0.692 -0.023,1.206 -0.131,2.446 -0.281,3.06 -1.646,5.221 -3.656,6.677 34.495,-15.578 54.831,-32.928 52.233,-47.826 z m -255.142,49.594 -4.947,-33.688 -0.21,0 -5.083,33.688 -10.023,0 6.882,-37.126 16.514,0 6.854,37.126 -9.987,0 z m 49.395,0 -0.244,-33.378 -0.192,0 -6.207,33.378 -9.42,0 -6.21,-33.378 -0.2,0 -0.232,33.378 -9.299,0 0.82,-37.126 15.149,0 4.584,28.38 0.196,0 4.589,-28.381 15.14,0 0.805,37.125 -9.278,0 0,0.002 z m 44.715,-7.136 c -0.863,6.129 -6.347,8.396 -12.991,8.396 -6.909,0 -13.368,-2.475 -13.368,-10.668 l 0.013,-2.836 9.854,0 0.008,3.561 c 0,1.991 1.4,3.328 3.696,3.328 2.454,0 3.282,-1.24 3.587,-2.469 0.162,-0.701 0.285,-1.826 -0.085,-2.717 -1.889,-4.759 -14.947,-6.938 -16.544,-14.446 -0.383,-1.854 -0.354,-3.313 -0.086,-4.958 0.967,-5.998 6.319,-8.156 12.848,-8.156 5.209,0 12.405,1.256 12.405,9.258 l 0,2.577 -9.186,0 c 0,0 0,-1.591 0,-2.265 0,-2.015 -1.256,-3.325 -3.404,-3.325 -2.301,0 -3.099,1.275 -3.361,2.466 -0.091,0.4 -0.143,1.184 0.035,1.922 1.038,4.303 14.986,6.6 16.548,14.301 0.161,0.776 0.476,2.845 0.031,6.031 z m 34.855,-0.936 c -0.662,6.931 -6.141,9.181 -12.959,9.181 -6.827,0 -12.313,-2.25 -12.964,-9.181 -0.035,-0.351 -0.097,-1.757 -0.081,-2.438 l 0,-26.633 9.385,0 0,27.473 c 0,0.48 0.017,1.023 0.085,1.422 0.2,0.912 0.982,2.691 3.579,2.691 2.577,0 3.378,-1.779 3.557,-2.691 0.076,-0.401 0.096,-0.94 0.089,-1.422 l 0,-27.473 9.388,0 0,26.632 c 0.019,0.682 -0.048,2.089 -0.079,2.439 z m 41.643,7.685 -13.219,0 -9.169,-30.153 -0.199,0 0.509,30.153 -9.131,0 0,-36.741 13.788,0 8.532,29.152 0.204,0 -0.508,-29.152 9.191,0 0.002,36.741 0,0 z" /></g></svg>