<?xml version="1.0" encoding="UTF-8" standalone="no"?>
<svg
   xmlns:dc="http://purl.org/dc/elements/1.1/"
   xmlns:cc="http://creativecommons.org/ns#"
   xmlns:rdf="http://www.w3.org/1999/02/22-rdf-syntax-ns#"
   xmlns:svg="http://www.w3.org/2000/svg"
   xmlns="http://www.w3.org/2000/svg"
   version="1.1"
   id="svg2"
   viewBox="0 0 54.979843 9.6377998"
   height="100pt"
   width="570.46051pt">
  <metadata
     id="metadata14">
    <rdf:RDF>
      <cc:Work
         rdf:about="">
        <dc:format>image/svg+xml</dc:format>
        <dc:type
           rdf:resource="http://purl.org/dc/dcmitype/StillImage" />
        <dc:title></dc:title>
      </cc:Work>
    </rdf:RDF>
  </metadata>
  <defs
     id="defs12" />
  <path
     d="m 34.144069,-2.7196359e-7 0,9.61792747196359 6.241656,0 0,-1.0990878 -1.923829,0 0,-8.51883967196359 -4.317827,0 z m -11.934132,0 -7.14492,0 0,9.61792747196359 7.14492,0 0,-1.0990878 -2.433989,0 0,-3.2189824 2.433989,0 0,-1.0995726 -2.433989,0 0,-3.1011973 2.433989,0 0,-1.09908737196359 z m -17.3910356,0 0,1.09908737196359 1.9238279,0 0,8.5387134 4.3180697,0 0,-8.5387134 1.923586,0 0,-1.09908737196358 -8.1654836,0 z M 41.681363,9.6179272 44.075848,-2.7196359e-7 l 3.651104,0 L 50.160942,9.6179272 l -4.436342,0 -1.432812,-5.7314948 -0.765362,3.1407012 1.550112,0 0.373472,1.4917058 -2.316447,0 -0.27459,1.0990878 -1.17761,0 z m -17.09633,0 4.082499,0 c 3.435165,0 3.670736,-3.0030425 2.669803,-4.4557288 L 29.767105,2.8459949 C 29.49203,2.4337462 29.49203,1.8450614 29.610058,1.6487523 29.728085,1.4524433 29.904521,1.0990871 30.650494,1.0990871 l 1.079217,0 0,-1.09908737196359 -4.082985,0 C 24.212046,-2.7196359e-7 23.976233,3.003042 24.977408,4.4554861 l 1.57023,2.3162035 C 26.82247,7.1839384 26.82247,7.7728653 26.704685,7.9691743 26.5869,8.1654832 26.410464,8.5188394 25.664248,8.5188394 l -1.079457,0 0,1.0990878 2.42e-4,0 z"
     id="path8"
     style="clip-rule:evenodd;fill:#999999;fill-rule:evenodd" />
</svg>
