<?xml version="1.0" encoding="UTF-8" standalone="no"?>
<svg
   xmlns:dc="http://purl.org/dc/elements/1.1/"
   xmlns:cc="http://creativecommons.org/ns#"
   xmlns:rdf="http://www.w3.org/1999/02/22-rdf-syntax-ns#"
   xmlns:svg="http://www.w3.org/2000/svg"
   xmlns="http://www.w3.org/2000/svg"
   xml:space="preserve"
   viewBox="0 0 519.65373 125"
   y="0px"
   x="0px"
   id="logo"
   version="1.1"
   width="415.72296pt"
   height="100pt"><metadata
     id="metadata167"><rdf:RDF><cc:Work
         rdf:about=""><dc:format>image/svg+xml</dc:format><dc:type
           rdf:resource="http://purl.org/dc/dcmitype/StillImage" /><dc:title></dc:title></cc:Work></rdf:RDF></metadata><defs
     id="defs165" /><style
     id="style160"
     type="text/css">
	.st0{fill:#696566;}
</style><path
     style="fill:#999999"
     d="m 232.05373,88.199998 -17.3,-48.099996 c -0.2,-0.7 -0.5,-1.5 -0.5,-2.3 0,-2.1 1.8,-4.1 4.3,-4.1 2.2,0 3.6,1.4 4.3,3.5 l 14.3,41.499996 14.4,-41.599996 c 0.7,-2 2,-3.4 4.2,-3.4 l 0.4,0 c 2.3,0 3.7,1.4 4.4,3.4 l 14.3,41.599996 14.5,-41.699996 c 0.5,-1.8 1.8,-3.3 4.1,-3.3 2.4,0 4.2,1.9 4.2,4 0,0.8 -0.3,1.6 -0.5,2.3 l -17.4,48.199996 c -0.9,2.5 -2.6,3.8 -4.6,3.8 l -0.3,0 c -2.2,0 -3.9,-1.3 -4.6,-3.8 l -14.2,-40.899996 -14.3,40.899996 c -0.8,2.5 -2.4,3.8 -4.6,3.8 l -0.2,0 c -2.3,0 -4,-1.3 -4.9,-3.8 m 126,-50.399996 c 0,-2.3 1.9,-4.3 4.2,-4.3 2.4,0 4.3,1.9 4.3,4.3 l 0,9.8 c 4.2,-9.5 13.5,-14 19.6,-14 2.5,0 4.2,1.9 4.2,4.3 0,2.3 -1.5,4 -3.8,4.3 -11,1.3 -20.1,9.6 -20.1,25.999996 l 0,19.3 c 0,2.3 -1.8,4.3 -4.2,4.3 -2.4,0 -4.3,-1.9 -4.3,-4.3 l 0.1,-49.699996 0,0 z m 59.5,54.699996 c -15.4,0 -27.9,-11.9 -27.9,-29.399996 l 0,-0.2 c 0,-16.3 11.4,-29.4 26.8,-29.4 16.5,0 25.9,13.6 25.9,28.6 0,2.3 -1.9,3.9 -3.9,3.9 l -40.4,0 c 1.2,12.199996 9.7,19.099996 19.7,19.099996 6.9,0 12,-2.7 16.1,-6.6 0.6,-0.5 1.4,-1 2.4,-1 2,0 3.7,1.6 3.7,3.6 0,1 -0.4,2 -1.3,2.7 -5.3,5.3 -11.6,8.7 -21.1,8.7 m 16.6,-32.699996 c -0.9,-10.3 -6.7,-19.2 -17.8,-19.2 -9.7,0 -17.1,8.2 -18.1,19.2 l 35.9,0 z m -136.3,14.999996 0,-0.2 c 0,-11.999996 9.9,-18.399996 24.3,-18.399996 7.3,0 12.4,1 17.5,2.4 l 0,-2 c 0,-10.2 -6.3,-15.5 -16.9,-15.5 -5.7,0 -9,0.7 -13.2,2.6 -0.5,0.2 -1.1,0.3 -1.5,0.3 -2,0 -3.7,-1.7 -3.7,-3.6 0,-1.8 0.8,-2.8 2.3,-3.5 5.6,-2.4 9.8,-3.2 17.1,-3.2 8,0 14.2,2.1 18.4,6.3 3.9,3.8 5.8,9.3 5.8,16.6 l 0,31.399996 c 0,2.4 -1.8,4.2 -4.1,4.2 -2.4,0 -4,-1.8 -4,-4 l 0,-5.4 c -4,5.2 -10.6,9.8 -20.6,9.8 -10.7,-0.1 -21.4,-6.2 -21.4,-17.8 m 41.9,-4.4 0,-5.499996 c -4.2,-1.2 -9.8,-2.4 -16.7,-2.4 -10.7,0 -16.6,4.6 -16.6,11.799996 l 0,0.2 c 0,7.1 6.6,11.3 14.3,11.3 10.4,0 19,-6.4 19,-15.4 M 78.053736,37.200002 c -1.9,-4.1 -6.5,-5.9 -10.8,-4 -4.3,1.9 -5.9,6.7 -3.9,10.8 l 18,39.199996 c 2.8,6.1 5.8,9.4 11.4,9.4 6,0 8.600004,-3.5 11.400004,-9.4 0,0 15.7,-34.299996 15.9,-34.599996 0.2,-0.4 0.7,-1.5 2.3,-1.5 1.4,0 2.5,1.1 2.5,2.5 l 0,33.499996 c 0,5.2 2.9,9.4 8.4,9.4 5.5,0 8.5,-4.2 8.5,-9.4 l 0,-27.399996 c 0,-5.3 3.8,-8.7 9,-8.7 5.2,0 8.6,3.6 8.6,8.7 l 0,27.399996 c 0,5.2 2.9,9.4 8.39999,9.4 5.5,0 8.5,-4.2 8.5,-9.4 l 0,-27.399996 c 0,-5.3 3.8,-8.7 8.9,-8.7 5.2,0 8.6,3.6 8.6,8.7 l 0,27.399996 c 0,5.2 2.9,9.4 8.4,9.4 5.5,0 8.5,-4.2 8.5,-9.4 l 0,-31.199996 c 0,-11.5 -9.2,-19.5 -20.3,-19.5 -11.1,0 -18,7.7 -18,7.7 -3.7,-4.8 -8.8,-7.7 -17.39999,-7.7 -9.1,0 -17,7.7 -17,7.7 -3.7,-4.8 -10,-7.7 -15.2,-7.7 -8.1,0 -14.4,3.5 -18.3,12.5 l -11.600004,27.199996 -14.8,-34.899996 z m 365.099994,3.4 0,0 c 0,-3.9 3.1,-7.1 7,-7.1 4,0 7,3.2 7,7 l 0,0 c 0,3.9 -3.1,7.1 -7,7.1 -4,0.1 -7,-3.1 -7,-7 m 12.7,0 0,0 c 0,-3.2 -2.4,-5.8 -5.7,-5.8 -3.2,0 -5.7,2.6 -5.7,5.8 l 0,0 c 0,3.1 2.4,5.7 5.7,5.7 3.2,0 5.7,-2.6 5.7,-5.7 m -8.4,-2.8 c 0,-0.4 0.3,-0.8 0.8,-0.8 l 2.3,0 c 0.9,0 1.6,0.2 2,0.7 0.4,0.4 0.6,0.9 0.6,1.6 l 0,0 c 0,1.1 -0.5,1.7 -1.4,2.1 l 1,1.3 c 0.1,0.2 0.2,0.3 0.2,0.6 0,0.4 -0.4,0.7 -0.7,0.7 -0.3,0 -0.6,-0.2 -0.7,-0.4 l -1.5,-1.8 -1.2,0 0,1.5 c 0,0.4 -0.3,0.7 -0.7,0.7 -0.4,0 -0.8,-0.3 -0.8,-0.7 l 0.1,-5.5 0,0 z m 3,2.5 c 0.7,0 1.1,-0.4 1.1,-1 l 0,0 c 0,-0.6 -0.4,-1 -1.2,-1 l -1.5,0 0,2 1.6,0 0,0 z"
     class="st0"
     id="logo_1_" /></svg>