<?xml version="1.0" encoding="UTF-8" standalone="no"?>
<svg
   xmlns:dc="http://purl.org/dc/elements/1.1/"
   xmlns:cc="http://creativecommons.org/ns#"
   xmlns:rdf="http://www.w3.org/1999/02/22-rdf-syntax-ns#"
   xmlns:svg="http://www.w3.org/2000/svg"
   xmlns="http://www.w3.org/2000/svg"
   width="826.83746pt"
   height="100pt"
   viewBox="0 0 79.68894 9.6377998"
   id="svg2"
   version="1.1">
  <metadata
     id="metadata14">
    <rdf:RDF>
      <cc:Work
         rdf:about="">
        <dc:format>image/svg+xml</dc:format>
        <dc:type
           rdf:resource="http://purl.org/dc/dcmitype/StillImage" />
        <dc:title></dc:title>
      </cc:Work>
    </rdf:RDF>
  </metadata>
  <defs
     id="defs12" />
  <path
     style="clip-rule:evenodd;fill:#999999;fill-rule:evenodd"
     id="path8"
     d="m 4.8188993,0.41337013 0,1.27904897 2.0979249,0 4.1056128,7.699755 5.052168,0 4.105612,-7.712485 2.097551,-0.0131 0.0045,-1.25321397 -6.276176,0 0,1.25770597 1.671451,0 -2.899203,5.473776 -3.135842,-5.45468 2.287386,-0.0105 -0.0041,-1.26631797 -9.1068584,0 z m 40.4896137,0 0,1.27904897 2.097176,0 4.106362,7.699755 5.051794,0 4.105613,-7.712485 2.098299,-0.0131 0.0034,-1.25321397 -6.275054,0 0,1.25770597 1.670702,0 -2.898828,5.473776 -3.135842,-5.45468 2.287012,-0.0105 -0.0037,-1.26631797 -9.106859,0 z m -10.322629,0 0,1.27904897 2.097925,0 0.003,6.286286 -2.211002,0 0,1.401861 2.212499,0.01162 10.474274,0 0,-4.179374 -1.364793,0 c -0.07451,2.212875 -1.994209,2.768901 -2.802226,2.768901 -0.741369,0 -2.176929,-0.003 -2.176929,-0.003 l 0,-6.288533 2.066099,-0.0105 -0.003,-1.26631897 -8.295846,0 z m -7.062103,-0.257608 c -3.565686,0 -6.455903,2.12301297 -6.455903,4.74101997 0,2.618006 2.890217,4.741018 6.455903,4.741018 3.565686,0 6.456277,-2.123012 6.456277,-4.741018 0,-2.618007 -2.890591,-4.74101997 -6.456277,-4.74101997 z m -0.09249,8.08654097 c -1.256959,0 -2.275405,-1.505579 -2.275405,-3.363869 0,-1.858664 1.018446,-3.365367 2.275405,-3.365367 1.256582,0 2.275778,1.506703 2.275778,3.365367 0,1.85829 -1.019196,3.363869 -2.275778,3.363869 z M 68.41414,1.2509758e-7 C 64.848455,1.2509758e-7 61.958237,2.1570851 61.958237,4.8185261 c 0,2.660317 2.890218,4.817775 6.455903,4.817775 3.564937,0 6.455903,-2.157458 6.455903,-4.817775 C 74.870043,2.1574601 71.979077,1.2509758e-7 68.41414,1.2509758e-7 Z M 68.32128,8.2183401 c -1.256209,0 -2.27503,-1.530666 -2.27503,-3.419284 0,-1.88862 1.018821,-3.41966 2.27503,-3.41966 1.256958,0 2.27503,1.530666 2.27503,3.41966 0,1.888618 -1.018072,3.419284 -2.27503,3.419284 z" />
</svg>
