<?xml version="1.0" encoding="UTF-8" standalone="no"?>
<svg
   xmlns:dc="http://purl.org/dc/elements/1.1/"
   xmlns:cc="http://creativecommons.org/ns#"
   xmlns:rdf="http://www.w3.org/1999/02/22-rdf-syntax-ns#"
   xmlns:svg="http://www.w3.org/2000/svg"
   xmlns="http://www.w3.org/2000/svg"
   width="804.10376pt"
   height="240pt"
   viewBox="0 0 117.78864 35.15625"
   version="1.1"
   id="svg2">
  <metadata
     id="metadata65">
    <rdf:RDF>
      <cc:Work
         rdf:about="">
        <dc:format>image/svg+xml</dc:format>
        <dc:type
           rdf:resource="http://purl.org/dc/dcmitype/StillImage" />
        <dc:title>025 - Design</dc:title>
      </cc:Work>
    </rdf:RDF>
  </metadata>
  <!-- Generator: Sketch 51.3 (57544) - http://www.bohemiancoding.com/sketch -->
  <title
     id="title4">025 - Design</title>
  <desc
     id="desc6">Created with Sketch.</desc>
  <defs
     id="defs8" />
  <text
     xml:space="preserve"
     style="font-style:normal;font-variant:normal;font-weight:normal;font-stretch:normal;font-size:0.70312494px;line-height:0%;font-family:'.Arabic UI Text';-inkscape-font-specification:'.Arabic UI Text, Normal';text-align:start;letter-spacing:0px;word-spacing:0px;writing-mode:lr-tb;text-anchor:start;fill:#000000;fill-opacity:1;stroke:none;stroke-width:1px;stroke-linecap:butt;stroke-linejoin:miter;stroke-opacity:1"
     x="2.8623493"
     y="12.609237"
     id="text4193"><tspan
       id="tspan4195"
       x="2.8623493"
       y="12.609237">Cr</tspan></text>
  <flowRoot
     xml:space="preserve"
     id="flowRoot4197"
     style="font-style:normal;font-variant:normal;font-weight:normal;font-stretch:normal;font-size:6px;line-height:0%;font-family:'.Arabic UI Text';-inkscape-font-specification:'.Arabic UI Text, Normal';text-align:start;letter-spacing:0px;word-spacing:0px;writing-mode:lr-tb;text-anchor:start;fill:#000000;fill-opacity:1;stroke:none;stroke-width:1px;stroke-linecap:butt;stroke-linejoin:miter;stroke-opacity:1"
     transform="matrix(0.11718749,0,0,0.11718749,-9.3622082,-27.070313)"><flowRegion
       id="flowRegion4199"><rect
         id="rect4201"
         width="337.49368"
         height="251.5862"
         x="196.35995"
         y="166.78387" /></flowRegion><flowPara
       id="flowPara4203">==</flowPara></flowRoot>  <flowRoot
     xml:space="preserve"
     id="flowRoot4207"
     style="font-style:normal;font-variant:normal;font-weight:normal;font-stretch:normal;font-size:6px;line-height:0%;font-family:'.Arabic UI Text';-inkscape-font-specification:'.Arabic UI Text, Normal';text-align:start;letter-spacing:0px;word-spacing:0px;writing-mode:lr-tb;text-anchor:start;fill:#000000;fill-opacity:1;stroke:none;stroke-width:1px;stroke-linecap:butt;stroke-linejoin:miter;stroke-opacity:1"
     transform="matrix(0.11718749,0,0,0.11718749,-9.3622082,-27.070313)"><flowRegion
       id="flowRegion4209"><rect
         id="rect4211"
         width="809.9848"
         height="533.85364"
         x="-668.85114"
         y="-133.8923" /></flowRegion><flowPara
       id="flowPara4213" /></flowRoot>  <g
     id="g4849">
    <g
       transform="matrix(0.58593747,0,0,0.58593747,82.632386,-4e-6)"
       style="fill:#3d8af7;fill-opacity:1;fill-rule:evenodd;stroke:none;stroke-width:1"
       id="Page-1">
      <g
         style="fill:#3d8af7;fill-opacity:1;fill-rule:nonzero"
         id="025---Design">
        <path
           style="fill:#3d8af7;fill-opacity:1"
           id="Shape"
           d="m 2,8 1,0 0,0.5 c 0,0.5522848 0.4477153,1 1,1 0.5522847,0 1,-0.4477152 1,-1 L 5,8 6,8 C 7.1045695,8 8,7.1045695 8,6 L 8,5 8.5,5 c 0.5522848,0 1,-0.4477153 1,-1 0,-0.5522847 -0.4477152,-1 -1,-1 L 8,3 8,2 C 8,0.8954305 7.1045695,0 6,0 L 2,0 C 0.8954305,0 0,0.8954305 0,2 L 0,6 C 0,7.1045695 0.8954305,8 2,8 Z M 2,2 6,2 6,6 2,6 2,2 Z" />
        <path
           style="fill:#3d8af7;fill-opacity:1"
           id="path13"
           d="m 32,0 -4,0 c -1.10457,0 -2,0.8954305 -2,2 l 0,1 -0.5,0 c -0.552285,0 -1,0.4477153 -1,1 0,0.5522847 0.447715,1 1,1 l 0.5,0 0,1 c 0,1.1045695 0.89543,2 2,2 l 4,0 c 1.104569,0 2,-0.8954305 2,-2 l 0,-1 0.5,0 c 0.552285,0 1,-0.4477153 1,-1 0,-0.5522847 -0.447715,-1 -1,-1 L 34,3 34,2 C 34,0.8954305 33.104569,0 32,0 Z m -4,6 0,-4 4,0 0,4 -4,0 z" />
        <path
           style="fill:#3d8af7;fill-opacity:1"
           id="path15"
           d="m 58,0 -4,0 c -1.104569,0 -2,0.8954305 -2,2 l 0,1 -0.5,0 c -0.552285,0 -1,0.4477153 -1,1 0,0.5522847 0.447715,1 1,1 l 0.5,0 0,1 c 0,1.1045695 0.895431,2 2,2 l 1,0 0,0.5 c 0,0.5522848 0.447715,1 1,1 0.552285,0 1,-0.4477152 1,-1 L 57,8 58,8 c 1.104569,0 2,-0.8954305 2,-2 L 60,2 C 60,0.8954305 59.104569,0 58,0 Z m -4,6 0,-4 4,0 0,4 -4,0 z" />
        <path
           style="fill:#3d8af7;fill-opacity:1"
           id="path17"
           d="m 2,34 1,0 0,0.5 c 0,0.552285 0.4477153,1 1,1 0.5522847,0 1,-0.447715 1,-1 L 5,34 6,34 c 1.1045695,0 2,-0.895431 2,-2 L 8,28 C 8,26.89543 7.1045695,26 6,26 l -1,0 0,-0.5 c 0,-0.552285 -0.4477153,-1 -1,-1 -0.5522847,0 -1,0.447715 -1,1 L 3,26 2,26 c -1.1045695,0 -2,0.89543 -2,2 l 0,4 c 0,1.104569 0.8954305,2 2,2 z m 0,-6 4,0 0,4 -4,0 0,-4 z" />
        <path
           style="fill:#3d8af7;fill-opacity:1"
           id="path19"
           d="m 58,26 -1,0 0,-0.5 c 0,-0.552285 -0.447715,-1 -1,-1 -0.552285,0 -1,0.447715 -1,1 l 0,0.5 -1,0 c -1.104569,0 -2,0.89543 -2,2 l 0,4 c 0,1.104569 0.895431,2 2,2 l 1,0 0,0.5 c 0,0.552285 0.447715,1 1,1 0.552285,0 1,-0.447715 1,-1 l 0,-0.5 1,0 c 1.104569,0 2,-0.895431 2,-2 l 0,-4 c 0,-1.10457 -0.895431,-2 -2,-2 z m -4,6 0,-4 4,0 0,4 -4,0 z" />
        <path
           style="fill:#3d8af7;fill-opacity:1"
           id="path21"
           d="m 2,60 4,0 c 1.1045695,0 2,-0.895431 2,-2 l 0,-1 0.5,0 c 0.5522848,0 1,-0.447715 1,-1 0,-0.552285 -0.4477152,-1 -1,-1 L 8,55 8,54 C 8,52.895431 7.1045695,52 6,52 l -1,0 0,-0.5 c 0,-0.552285 -0.4477153,-1 -1,-1 -0.5522847,0 -1,0.447715 -1,1 L 3,52 2,52 c -1.1045695,0 -2,0.895431 -2,2 l 0,4 c 0,1.104569 0.8954305,2 2,2 z m 0,-6 4,0 0,4 -4,0 0,-4 z" />
        <path
           style="fill:#3d8af7;fill-opacity:1"
           id="path23"
           d="m 28,60 4,0 c 1.104569,0 2,-0.895431 2,-2 l 0,-1 0.5,0 c 0.552285,0 1,-0.447715 1,-1 0,-0.552285 -0.447715,-1 -1,-1 l -0.5,0 0,-1 c 0,-1.104569 -0.895431,-2 -2,-2 l -4,0 c -1.10457,0 -2,0.895431 -2,2 l 0,1 -0.5,0 c -0.552285,0 -1,0.447715 -1,1 0,0.552285 0.447715,1 1,1 l 0.5,0 0,1 c 0,1.104569 0.89543,2 2,2 z m 0,-6 4,0 0,4 -4,0 0,-4 z" />
        <path
           style="fill:#3d8af7;fill-opacity:1"
           id="path25"
           d="m 58,52 -1,0 0,-0.5 c 0,-0.552285 -0.447715,-1 -1,-1 -0.552285,0 -1,0.447715 -1,1 l 0,0.5 -1,0 c -1.104569,0 -2,0.895431 -2,2 l 0,1 -0.5,0 c -0.552285,0 -1,0.447715 -1,1 0,0.552285 0.447715,1 1,1 l 0.5,0 0,1 c 0,1.104569 0.895431,2 2,2 l 4,0 c 1.104569,0 2,-0.895431 2,-2 l 0,-4 c 0,-1.104569 -0.895431,-2 -2,-2 z m -4,6 0,-4 4,0 0,4 -4,0 z" />
        <path
           style="fill:#3d8af7;fill-opacity:1"
           id="path27"
           d="m 5,12.548 c 0,-0.552285 -0.4477153,-1 -1,-1 -0.5522847,0 -1,0.447715 -1,1 l 0,2.429 c 0,0.552285 0.4477153,1 1,1 0.5522847,0 1,-0.447715 1,-1 l 0,-2.429 z" />
        <path
           style="fill:#3d8af7;fill-opacity:1"
           id="path29"
           d="m 4,18.024 c -0.5522847,0 -1,0.447715 -1,1 l 0,2.429 c 0,0.552285 0.4477153,1 1,1 0.5522847,0 1,-0.447715 1,-1 l 0,-2.429 c 0,-0.552285 -0.4477153,-1 -1,-1 z" />
        <path
           style="fill:#3d8af7;fill-opacity:1"
           id="path31"
           d="m 5,38.548 c 0,-0.552285 -0.4477153,-1 -1,-1 -0.5522847,0 -1,0.447715 -1,1 l 0,2.429 c 0,0.552285 0.4477153,1 1,1 0.5522847,0 1,-0.447715 1,-1 l 0,-2.429 z" />
        <path
           style="fill:#3d8af7;fill-opacity:1"
           id="path33"
           d="m 4,44.024 c -0.5522847,0 -1,0.447715 -1,1 l 0,2.429 c 0,0.552285 0.4477153,1 1,1 0.5522847,0 1,-0.447715 1,-1 l 0,-2.429 c 0,-0.552285 -0.4477153,-1 -1,-1 z" />
        <path
           style="fill:#3d8af7;fill-opacity:1"
           id="path35"
           d="m 56,15.977 c 0.552285,0 1,-0.447715 1,-1 l 0,-2.429 c 0,-0.552285 -0.447715,-1 -1,-1 -0.552285,0 -1,0.447715 -1,1 l 0,2.429 c 0,0.552285 0.447715,1 1,1 z" />
        <path
           style="fill:#3d8af7;fill-opacity:1"
           id="path37"
           d="m 55,21.453 c 0,0.552285 0.447715,1 1,1 0.552285,0 1,-0.447715 1,-1 l 0,-2.429 c 0,-0.552285 -0.447715,-1 -1,-1 -0.552285,0 -1,0.447715 -1,1 l 0,2.429 z" />
        <path
           style="fill:#3d8af7;fill-opacity:1"
           id="path39"
           d="m 56,41.977 c 0.552285,0 1,-0.447715 1,-1 l 0,-2.429 c 0,-0.552285 -0.447715,-1 -1,-1 -0.552285,0 -1,0.447715 -1,1 l 0,2.429 c 0,0.552285 0.447715,1 1,1 z" />
        <path
           style="fill:#3d8af7;fill-opacity:1"
           id="path41"
           d="m 55,47.453 c 0,0.552285 0.447715,1 1,1 0.552285,0 1,-0.447715 1,-1 l 0,-2.429 c 0,-0.552285 -0.447715,-1 -1,-1 -0.552285,0 -1,0.447715 -1,1 l 0,2.429 z" />
        <path
           style="fill:#3d8af7;fill-opacity:1"
           id="path43"
           d="m 47.452,5 c 0.552285,0 1,-0.4477153 1,-1 0,-0.5522847 -0.447715,-1 -1,-1 l -2.429,0 c -0.552285,0 -1,0.4477153 -1,1 0,0.5522847 0.447715,1 1,1 l 2.429,0 z" />
        <path
           style="fill:#3d8af7;fill-opacity:1"
           id="path45"
           d="m 40.976,5 c 0.552285,0 1,-0.4477153 1,-1 0,-0.5522847 -0.447715,-1 -1,-1 l -2.429,0 c -0.552285,0 -1,0.4477153 -1,1 0,0.5522847 0.447715,1 1,1 l 2.429,0 z" />
        <path
           style="fill:#3d8af7;fill-opacity:1"
           id="path47"
           d="m 14.976,5 c 0.552285,0 1,-0.4477153 1,-1 0,-0.5522847 -0.447715,-1 -1,-1 l -2.429,0 c -0.552285,0 -1,0.4477153 -1,1 0,0.5522847 0.447715,1 1,1 l 2.429,0 z" />
        <path
           style="fill:#3d8af7;fill-opacity:1"
           id="path49"
           d="m 21.452,5 c 0.552285,0 1,-0.4477153 1,-1 0,-0.5522847 -0.447715,-1 -1,-1 l -2.429,0 c -0.552285,0 -1,0.4477153 -1,1 0,0.5522847 0.447715,1 1,1 l 2.429,0 z" />
        <path
           style="fill:#3d8af7;fill-opacity:1"
           id="path51"
           d="m 38.547,55 c -0.552285,0 -1,0.447715 -1,1 0,0.552285 0.447715,1 1,1 l 2.429,0 c 0.552285,0 1,-0.447715 1,-1 0,-0.552285 -0.447715,-1 -1,-1 l -2.429,0 z" />
        <path
           style="fill:#3d8af7;fill-opacity:1"
           id="path53"
           d="m 45.023,55 c -0.552285,0 -1,0.447715 -1,1 0,0.552285 0.447715,1 1,1 l 2.429,0 c 0.552285,0 1,-0.447715 1,-1 0,-0.552285 -0.447715,-1 -1,-1 l -2.429,0 z" />
        <path
           style="fill:#3d8af7;fill-opacity:1"
           id="path55"
           d="m 12.547,55 c -0.552285,0 -1,0.447715 -1,1 0,0.552285 0.447715,1 1,1 l 2.429,0 c 0.552285,0 1,-0.447715 1,-1 0,-0.552285 -0.447715,-1 -1,-1 l -2.429,0 z" />
        <path
           style="fill:#3d8af7;fill-opacity:1"
           id="path57"
           d="m 21.452,55 -2.429,0 c -0.552285,0 -1,0.447715 -1,1 0,0.552285 0.447715,1 1,1 l 2.429,0 c 0.552285,0 1,-0.447715 1,-1 0,-0.552285 -0.447715,-1 -1,-1 z" />
        <path
           style="fill:#3d8af7;fill-opacity:1"
           id="path59"
           d="m 9.342,14.75 c -0.00309,1.060947 0.4186005,2.078993 1.171,2.827 L 22.932,30 15.418,37.51 c -0.007,0.008 -0.011,0.019 -0.019,0.027 -0.02401,0.02975 -0.04638,0.0608 -0.067,0.093 -0.03729,0.04371 -0.07075,0.09055 -0.1,0.14 L 9.574,49.084 C 9.3810635,49.469098 9.4563909,49.93447 9.7609605,50.239039 10.06553,50.543609 10.530902,50.618936 10.916,50.426 L 22.23,44.769 c 0.05014,-0.02915 0.09766,-0.06261 0.142,-0.1 0.03,-0.023 0.063,-0.04 0.09,-0.065 0.008,-0.008 0.02,-0.012 0.028,-0.02 l 7.51,-7.515 0.615,0.619 0.655,0.659 0.008,0.005 c 2.444321,2.688994 4.519877,5.691354 6.172,8.928 0.157096,0.314319 0.467639,0.523119 0.818,0.55 l 8.824,0.679 0.268,0.268 c 0.251074,0.259957 0.622878,0.364213 0.972507,0.272697 0.34963,-0.09152 0.622675,-0.36456 0.71419,-0.71419 C 49.138213,47.985878 49.033957,47.614074 48.774,47.363 l -0.268,-0.268 -0.679,-8.824 c -0.02688,-0.350361 -0.235681,-0.660904 -0.55,-0.818 -3.236646,-1.652123 -6.239006,-3.727679 -8.928,-6.172 L 38.344,31.273 37.685,30.617 37.069,30 49.359,17.709 c 1.561528,-1.561999 1.561528,-4.094001 0,-5.656 l -1.414,-1.414 c -1.582129,-1.5121388 -4.073871,-1.5121388 -5.656,0 L 30,22.932 17.577,10.513 c -1.56177,-1.5601953 -4.09223,-1.5601953 -5.654,0 l -1.41,1.41 C 9.7606005,12.671007 9.3389055,13.689053 9.342,14.75 Z m 21.344,10.321 c 0.006,-0.006 0.015,-0.008 0.021,-0.014 0.006,-0.006 0.008,-0.015 0.014,-0.021 l 6.618,-6.617 c 0.781,-0.780764 2.047,-0.780764 2.828,0 L 32.389,26.2 c -0.281204,0.245627 -0.402147,0.627455 -0.31364,0.990188 0.08851,0.362732 0.37172,0.645946 0.734452,0.734452 C 33.172545,28.01315 33.554373,27.8922 33.8,27.611 l 7.779,-7.778 c 0.780764,0.781 0.780764,2.047 0,2.828 l -6.617,6.618 c -0.006,0.006 -0.015,0.008 -0.021,0.014 -0.006,0.006 -0.008,0.015 -0.014,0.021 l -5.615,5.615 c -0.006,0.006 -0.015,0.008 -0.021,0.014 -0.006,0.006 -0.008,0.015 -0.014,0.021 l -7.167,7.169 c -0.313068,-0.607127 -0.687703,-1.180472 -1.118,-1.711 l 9.983,-9.983 C 31.353972,30.046621 31.348552,29.422915 30.96282,29.037181 30.577085,28.651448 29.953379,28.646028 29.561,29.025 l -9.983,9.983 C 19.047472,38.577703 18.474127,38.203068 17.867,37.89 l 7.169,-7.169 c 0.006,-0.006 0.015,-0.008 0.021,-0.014 0.006,-0.006 0.008,-0.015 0.014,-0.021 l 5.615,-5.615 z m 5.236,10.851 c -0.982551,1.156283 -2.709222,1.314909 -3.886,0.357 l -0.62,-0.624 4.239,-4.239 0.624,0.62 c 0.957359,1.176946 0.798772,2.903184 -0.357,3.886 z m -18.888,9.209 c -0.479102,-0.929149 -1.235851,-1.685898 -2.165,-2.165 l 1.74,-3.48 c 1.72205,0.797846 3.104361,2.181929 3.9,3.905 l -3.475,1.74 z m -3.057,-0.38 c 0.543595,0.284635 0.987365,0.728405 1.272,1.272 l -2.544,1.277 1.272,-2.549 z m 32.364,0.176 -1.8,-1.8 c -0.392379,-0.378972 -1.016085,-0.373552 -1.401819,0.01218 -0.385733,0.385734 -0.391153,1.00944 -0.01218,1.401819 l 1.8,1.8 -5.943,-0.458 c -1.313821,-2.484235 -2.851171,-4.843647 -4.593,-7.049 2.289675,-0.358166 4.084927,-2.155844 4.44,-4.446 2.205989,1.744455 4.566425,3.284161 7.052,4.6 l 0.458,5.939 z M 43.7,12.055 c 0.791167,-0.755814 2.036833,-0.755814 2.828,0 l 1.414,1.414 c 0.780764,0.781 0.780764,2.047 0,2.828 l -3.929,3.929 C 43.841773,19.544112 43.492138,18.920085 43,18.418 L 41.582,17 C 41.080728,16.505315 40.456628,16.153223 39.774,15.98 L 43.7,12.055 Z m -31.773,1.282 1.41,-1.41 c 0.791107,-0.754032 2.034893,-0.754032 2.826,0 l 12.419,12.42 -4.236,4.235 -12.419,-12.419 c -0.779432,-0.78077 -0.779432,-2.04523 0,-2.826 z" />
        <path
           style="fill:#3d8af7;fill-opacity:1"
           id="path61"
           d="m 41.181,41.181 c 0.286061,-0.285974 0.371672,-0.716116 0.216908,-1.089827 -0.154763,-0.373712 -0.519418,-0.617386 -0.923908,-0.617386 -0.40449,0 -0.769145,0.243674 -0.923908,0.617386 -0.154764,0.373711 -0.06915,0.803853 0.216908,1.089827 0.3905,0.390382 1.0235,0.390382 1.414,0 z" />
      </g>
    </g>
    <g
       style="font-style:normal;font-variant:normal;font-weight:bold;font-stretch:normal;font-size:12.65624905px;line-height:162.00000048%;font-family:'.Hiragino Kaku Gothic Interface';-inkscape-font-specification:'.Hiragino Kaku Gothic Interface, Bold';text-align:start;letter-spacing:0.91523457px;word-spacing:1.72265625px;writing-mode:lr-tb;text-anchor:start;fill:#000000;fill-opacity:1;stroke:none;stroke-width:1px;stroke-linecap:butt;stroke-linejoin:miter;stroke-opacity:1"
       id="flowRoot4215">
      <path
         d="M 9.6301112,5.1253614 C 9.4494689,4.4479529 9.2688267,4.0415078 8.896252,3.5560317 8.105942,2.5060485 6.8753166,1.9641217 5.2946967,1.9641217 c -1.3661072,0 -2.4951213,0.4064451 -3.3193017,1.1854649 -1.02740291,0.9935325 -1.56932972,2.4386706 -1.56932972,4.1547722 0,1.670941 0.50805638,3.1273692 1.43384802,4.0757412 0.8128902,0.846761 2.0435157,1.309656 3.4886538,1.309656 1.5015889,0 2.7322144,-0.485476 3.4773637,-1.388687 0.4628959,-0.541927 0.6999888,-1.072563 0.948372,-2.0886762 L 7.5527251,8.8623984 C 7.462404,9.4156153 7.3720828,9.6865787 7.1688603,9.9914126 6.7737053,10.54463 6.1188771,10.849463 5.317277,10.849463 c -1.6935213,0 -2.7209242,-1.3435265 -2.7209242,-3.5563943 0,-1.2193354 0.316124,-2.1902876 0.8919212,-2.7999552 0.4516057,-0.4628958 1.0725635,-0.6999888 1.7951326,-0.6999888 0.7790198,0 1.3886874,0.2709634 1.7612621,0.8354705 0.1919324,0.2596732 0.2935437,0.4967662 0.4177353,0.959662 L 9.6301112,5.1253614 Z"
         style="font-style:normal;font-variant:normal;font-weight:bold;font-stretch:normal;font-size:12.65624905px;line-height:162.00000048%;font-family:'.Hiragino Kaku Gothic Interface';-inkscape-font-specification:'.Hiragino Kaku Gothic Interface, Bold';text-align:start;writing-mode:lr-tb;text-anchor:start;fill:#3d8af7;fill-opacity:1"
         id="path4821" />
      <path
         d="M 20.913996,12.475244 C 20.507551,11.617193 20.372069,11.334939 20.112396,10.680111 19.062413,8.1624096 18.82532,7.8349955 18.023719,7.5866124 18.689838,7.3946799 18.994672,7.2253278 19.333376,6.8979137 19.796272,6.446308 20.033365,5.7801896 20.033365,4.9221389 c 0,-1.7273917 -1.140305,-2.7435045 -3.12737,-2.7435045 l -3.149949,0 c -0.77902,0 -1.219335,-0.01129 -1.749972,-0.03387 0.07903,0.6209578 0.101611,1.0048226 0.101611,1.749972 l 0,6.807956 c 0,0.84676 -0.02258,1.208045 -0.101611,1.772552 l 2.280609,0 c -0.07903,-0.553217 -0.101612,-0.982243 -0.101612,-1.795133 l 0,-2.3370591 1.59191,0 c 0.474186,0 0.835471,0.1354817 1.129014,0.4516056 0.293544,0.2935437 0.508057,0.7338593 0.858051,1.6596505 0.440316,1.196755 0.598378,1.670941 0.632248,2.020936 l 2.517702,0 z m -6.728925,-5.9160346 0,-2.6193129 2.303189,0 c 0.914502,0 1.377397,0.4177353 1.377397,1.2419156 0,0.8354705 -0.553216,1.3773973 -1.411267,1.3773973 l -2.269319,0 z"
         style="font-style:normal;font-variant:normal;font-weight:bold;font-stretch:normal;font-size:12.65624905px;line-height:162.00000048%;font-family:'.Hiragino Kaku Gothic Interface';-inkscape-font-specification:'.Hiragino Kaku Gothic Interface, Bold';text-align:start;writing-mode:lr-tb;text-anchor:start;fill:#3d8af7;fill-opacity:1"
         id="path4823" />
      <path
         d="m 30.548571,10.54463 c -0.553217,0.06774 -0.959662,0.09032 -1.738681,0.09032 l -3.624136,0 0,-2.5741527 2.901567,0 c 0.83547,0 1.219335,0.03387 1.772552,0.090321 l 0,-1.9757748 c -0.598378,0.067741 -1.072564,0.090321 -1.772552,0.090321 l -2.890277,0 0,-2.2580284 3.454784,0 c 0.8016,0 1.230625,0.02258 1.761262,0.079031 l 0,-1.9983551 c -0.643538,0.067741 -1.072564,0.090321 -1.761262,0.090321 l -3.91768,0 c -0.880631,0 -1.208045,-0.01129 -1.727391,-0.03387 0.07903,0.5870873 0.101611,1.0048226 0.101611,1.7273917 l 0,6.8756963 c 0,0.81289 -0.02258,1.253206 -0.101611,1.761262 0.519346,-0.02258 0.869341,-0.03387 1.738682,-0.03387 l 4.04187,0 c 0.824181,0 1.298367,0.02258 1.761262,0.07903 l 0,-2.009645 z"
         style="font-style:normal;font-variant:normal;font-weight:bold;font-stretch:normal;font-size:12.65624905px;line-height:162.00000048%;font-family:'.Hiragino Kaku Gothic Interface';-inkscape-font-specification:'.Hiragino Kaku Gothic Interface, Bold';text-align:start;writing-mode:lr-tb;text-anchor:start;fill:#3d8af7;fill-opacity:1"
         id="path4825" />
      <path
         d="M 42.476126,12.475244 C 42.329354,12.15912 42.103552,11.594613 41.855169,10.951075 L 39.077794,3.499581 C 38.79554,2.7770119 38.716509,2.5060485 38.648768,2.1786344 l -2.720924,0 C 35.848813,2.5399189 35.747202,2.867333 35.521399,3.499581 l -2.766085,7.451494 c -0.259673,0.722569 -0.440315,1.140304 -0.643538,1.524169 l 2.506412,0 c 0.06774,-0.440316 0.135481,-0.77902 0.338704,-1.343527 l 0.429025,-1.2306256 3.827358,0 0.429026,1.2306256 c 0.124191,0.372575 0.237093,0.82418 0.327414,1.343527 l 2.506411,0 z m -3.793487,-4.357995 -2.754795,0 1.185465,-3.578975 c 0.09032,-0.2596732 0.101611,-0.3161239 0.180642,-0.5870873 0.101611,0.3387042 0.146772,0.4741859 0.180642,0.5870873 l 1.208046,3.578975 z"
         style="font-style:normal;font-variant:normal;font-weight:bold;font-stretch:normal;font-size:12.65624905px;line-height:162.00000048%;font-family:'.Hiragino Kaku Gothic Interface';-inkscape-font-specification:'.Hiragino Kaku Gothic Interface, Bold';text-align:start;writing-mode:lr-tb;text-anchor:start;fill:#3d8af7;fill-opacity:1"
         id="path4827" />
      <path
         d="m 49.229334,4.0415078 1.512879,0 c 0.914502,0 1.399978,0.02258 1.919324,0.090321 l 0,-2.0435156 c -0.519346,0.067741 -1.027402,0.090321 -1.919324,0.090321 l -5.261206,0 c -0.733859,0 -1.287076,-0.02258 -1.795132,-0.090321 l 0,2.0435156 c 0.508056,-0.067741 1.049983,-0.090321 1.806422,-0.090321 l 1.603201,0 0,6.6611842 c 0,0.733859 -0.02258,1.219335 -0.09032,1.772552 l 2.32577,0 c -0.07903,-0.553217 -0.101612,-1.061274 -0.101612,-1.772552 l 0,-6.6611842 z"
         style="font-style:normal;font-variant:normal;font-weight:bold;font-stretch:normal;font-size:12.65624905px;line-height:162.00000048%;font-family:'.Hiragino Kaku Gothic Interface';-inkscape-font-specification:'.Hiragino Kaku Gothic Interface, Bold';text-align:start;writing-mode:lr-tb;text-anchor:start;fill:#3d8af7;fill-opacity:1"
         id="path4829" />
      <path
         d="m 54.599809,2.1786344 c 0.07903,0.5419268 0.101611,0.8806311 0.101611,1.749972 l 0,6.7966656 c 0,0.77902 -0.02258,1.253206 -0.101611,1.749972 l 2.325769,0 c -0.06774,-0.496766 -0.101611,-0.937082 -0.101611,-1.749972 l 0,-6.7966656 c 0,-0.8467607 0.03387,-1.2419156 0.101611,-1.749972 l -2.325769,0 z"
         style="font-style:normal;font-variant:normal;font-weight:bold;font-stretch:normal;font-size:12.65624905px;line-height:162.00000048%;font-family:'.Hiragino Kaku Gothic Interface';-inkscape-font-specification:'.Hiragino Kaku Gothic Interface, Bold';text-align:start;writing-mode:lr-tb;text-anchor:start;fill:#3d8af7;fill-opacity:1"
         id="path4831" />
      <path
         d="M 61.619525,3.5221613 C 61.472753,3.025395 61.382432,2.6754006 61.303401,2.1786344 l -2.517701,0 c 0.180642,0.3725747 0.349994,0.7903099 0.620957,1.5354593 l 2.698344,7.4402033 c 0.214513,0.598378 0.338705,1.004823 0.406445,1.320947 l 2.709634,0 c 0.04516,-0.304834 0.169353,-0.711279 0.395155,-1.320947 l 2.698344,-7.4402033 c 0.304834,-0.8580508 0.440316,-1.2080452 0.609668,-1.5354593 l -2.517702,0 c -0.07903,0.5419268 -0.101611,0.6774085 -0.316124,1.3435269 L 64.125937,9.7543196 C 64.024325,10.070444 63.934004,10.352697 63.866263,10.623661 63.821103,10.454308 63.719492,10.115604 63.60659,9.7543196 L 61.619525,3.5221613 Z"
         style="font-style:normal;font-variant:normal;font-weight:bold;font-stretch:normal;font-size:12.65624905px;line-height:162.00000048%;font-family:'.Hiragino Kaku Gothic Interface';-inkscape-font-specification:'.Hiragino Kaku Gothic Interface, Bold';text-align:start;writing-mode:lr-tb;text-anchor:start;fill:#3d8af7;fill-opacity:1"
         id="path4833" />
      <path
         d="m 78.333972,10.54463 c -0.553217,0.06774 -0.959662,0.09032 -1.738682,0.09032 l -3.624136,0 0,-2.5741527 2.901567,0 c 0.83547,0 1.219335,0.03387 1.772552,0.090321 l 0,-1.9757748 c -0.598377,0.067741 -1.072563,0.090321 -1.772552,0.090321 l -2.890276,0 0,-2.2580284 3.454783,0 c 0.8016,0 1.230625,0.02258 1.761262,0.079031 l 0,-1.9983551 c -0.643538,0.067741 -1.072563,0.090321 -1.761262,0.090321 l -3.917679,0 c -0.880631,0 -1.208045,-0.01129 -1.727392,-0.03387 0.07903,0.5870873 0.101611,1.0048226 0.101611,1.7273917 l 0,6.8756963 c 0,0.81289 -0.02258,1.253206 -0.101611,1.761262 0.519347,-0.02258 0.869341,-0.03387 1.738682,-0.03387 l 4.041871,0 c 0.82418,0 1.298366,0.02258 1.761262,0.07903 l 0,-2.009645 z"
         style="font-style:normal;font-variant:normal;font-weight:bold;font-stretch:normal;font-size:12.65624905px;line-height:162.00000048%;font-family:'.Hiragino Kaku Gothic Interface';-inkscape-font-specification:'.Hiragino Kaku Gothic Interface, Bold';text-align:start;writing-mode:lr-tb;text-anchor:start;fill:#3d8af7;fill-opacity:1"
         id="path4835" />
      <path
         d="M 10.36397,32.978368 C 10.217199,32.662244 9.9913957,32.097737 9.7430126,31.454199 L 6.9656377,24.002705 C 6.6833842,23.280136 6.6043532,23.009173 6.5366123,22.681759 l -2.7209242,0 c -0.079031,0.361284 -0.1806422,0.688698 -0.4064451,1.320946 l -2.76608474,7.451494 c -0.25967327,0.722569 -0.44031554,1.140304 -0.64353809121,1.524169 l 2.50641153121,0 c 0.067741,-0.440316 0.1354817,-0.77902 0.3387042,-1.343527 l 0.4290254,-1.230625 3.8273581,0 0.4290254,1.230625 c 0.1241916,0.372575 0.237093,0.82418 0.3274141,1.343527 l 2.5064111,0 z m -3.7934873,-4.357995 -2.7547946,0 1.1854649,-3.578975 c 0.090321,-0.259673 0.1016113,-0.316124 0.1806423,-0.587087 0.1016113,0.338704 0.1467718,0.474186 0.1806423,0.587087 l 1.2080451,3.578975 z"
         style="font-style:normal;font-variant:normal;font-weight:bold;font-stretch:normal;font-size:12.65624905px;line-height:162.00000048%;font-family:'.Hiragino Kaku Gothic Interface';-inkscape-font-specification:'.Hiragino Kaku Gothic Interface, Bold';text-align:start;writing-mode:lr-tb;text-anchor:start;fill:#3d8af7;fill-opacity:1"
         id="path4837" />
      <path
         d="m 18.923601,29.071979 0,1.772552 c -0.632248,0.372575 -1.230625,0.519347 -1.987065,0.519347 -0.880631,0 -1.56933,-0.259674 -2.020935,-0.77902 -0.541927,-0.620958 -0.835471,-1.6032 -0.835471,-2.811245 0,-1.241916 0.304834,-2.178998 0.880631,-2.788665 0.440316,-0.451606 1.095144,-0.711279 1.783843,-0.711279 0.598377,0 1.016113,0.101611 1.366107,0.349994 0.372575,0.237093 0.564507,0.519347 0.76773,1.095144 l 2.133836,-0.530637 c -0.259673,-0.733859 -0.496766,-1.117724 -0.925791,-1.558039 -0.75644,-0.75644 -1.862874,-1.174175 -3.13866,-1.174175 -1.038693,0 -1.908034,0.191932 -2.619313,0.598377 -1.546749,0.846761 -2.42738,2.551572 -2.42738,4.707989 0,1.55804 0.440315,2.980598 1.219335,3.90639 0.846761,0.993532 2.156417,1.524169 3.793488,1.524169 0.666118,0 1.411268,-0.101612 2.020935,-0.270964 0.722569,-0.191932 1.219336,-0.406445 2.054806,-0.914501 -0.07903,-0.553217 -0.09032,-0.914502 -0.09032,-1.738682 l 0,-1.388687 c 0,-0.76773 0.02258,-1.162885 0.09032,-1.637071 -0.519346,0.04516 -0.959662,0.05645 -1.56933,0.05645 l -0.83547,0 c -0.835471,0 -1.117724,-0.01129 -1.58062,-0.06774 l 0,1.908034 c 0.372575,-0.05645 0.632248,-0.06774 1.275786,-0.06774 l 0.643538,0 z"
         style="font-style:normal;font-variant:normal;font-weight:bold;font-stretch:normal;font-size:12.65624905px;line-height:162.00000048%;font-family:'.Hiragino Kaku Gothic Interface';-inkscape-font-specification:'.Hiragino Kaku Gothic Interface, Bold';text-align:start;writing-mode:lr-tb;text-anchor:start;fill:#3d8af7;fill-opacity:1"
         id="path4839" />
      <path
         d="m 30.968798,31.047754 c -0.553216,0.06774 -0.959662,0.09032 -1.738681,0.09032 l -3.624136,0 0,-2.574152 2.901567,0 c 0.83547,0 1.219335,0.03387 1.772552,0.09032 l 0,-1.975775 c -0.598378,0.06774 -1.072564,0.09032 -1.772552,0.09032 l -2.890277,0 0,-2.258028 3.454784,0 c 0.8016,0 1.230625,0.02258 1.761262,0.07903 l 0,-1.998356 c -0.643538,0.06774 -1.072564,0.09032 -1.761262,0.09032 l -3.91768,0 c -0.880631,0 -1.208045,-0.01129 -1.727391,-0.03387 0.07903,0.587088 0.101611,1.004823 0.101611,1.727392 l 0,6.875696 c 0,0.812891 -0.02258,1.253206 -0.101611,1.761262 0.519346,-0.02258 0.869341,-0.03387 1.738682,-0.03387 l 4.04187,0 c 0.824181,0 1.298367,0.02258 1.761262,0.07903 l 0,-2.009645 z"
         style="font-style:normal;font-variant:normal;font-weight:bold;font-stretch:normal;font-size:12.65624905px;line-height:162.00000048%;font-family:'.Hiragino Kaku Gothic Interface';-inkscape-font-specification:'.Hiragino Kaku Gothic Interface, Bold';text-align:start;writing-mode:lr-tb;text-anchor:start;fill:#3d8af7;fill-opacity:1"
         id="path4841" />
      <path
         d="m 36.438392,24.138187 c -0.451605,-0.666118 -0.699989,-1.129014 -0.81289,-1.456428 l -2.35964,0 c 0.07903,0.553217 0.101612,1.061273 0.101612,1.761262 l 0,6.582152 c 0,0.891922 -0.02258,1.490299 -0.101612,1.953195 l 2.258029,0 c -0.07903,-0.496766 -0.101612,-1.083854 -0.101612,-1.941904 l 0,-3.691877 c 0,-0.259673 -0.03387,-0.79031 -0.04516,-1.004822 -0.03387,-0.440316 -0.03387,-0.440316 -0.04516,-0.598378 0.338705,0.666118 0.553217,1.038693 0.812891,1.422558 l 2.901566,4.324124 c 0.406445,0.620958 0.711279,1.140305 0.869341,1.490299 l 2.37093,0 c -0.06774,-0.474186 -0.101612,-1.016113 -0.101612,-1.761262 l 0,-6.695054 c 0,-0.81289 0.03387,-1.309657 0.101612,-1.840293 l -2.258029,0 c 0.09032,0.541926 0.112902,1.004822 0.112902,1.829003 l 0,3.827358 c 0,0.474186 0.03387,1.140304 0.07903,1.58062 -0.270964,-0.496767 -0.575797,-1.004823 -0.869341,-1.433848 l -2.912857,-4.346705 z"
         style="font-style:normal;font-variant:normal;font-weight:bold;font-stretch:normal;font-size:12.65624905px;line-height:162.00000048%;font-family:'.Hiragino Kaku Gothic Interface';-inkscape-font-specification:'.Hiragino Kaku Gothic Interface, Bold';text-align:start;writing-mode:lr-tb;text-anchor:start;fill:#3d8af7;fill-opacity:1"
         id="path4843" />
      <path
         d="m 53.781158,25.628486 c -0.180642,-0.677409 -0.361285,-1.083854 -0.733859,-1.56933 -0.79031,-1.049983 -2.020936,-1.59191 -3.601556,-1.59191 -1.366107,0 -2.495121,0.406445 -3.319301,1.185465 -1.027403,0.993532 -1.56933,2.43867 -1.56933,4.154772 0,1.670941 0.508056,3.127369 1.433848,4.075741 0.81289,0.846761 2.043516,1.309657 3.488654,1.309657 1.501589,0 2.732214,-0.485476 3.477364,-1.388688 0.462895,-0.541927 0.699988,-1.072563 0.948372,-2.088676 l -2.201578,-0.349994 c -0.09032,0.553217 -0.180642,0.82418 -0.383865,1.129014 -0.395155,0.553217 -1.049983,0.858051 -1.851583,0.858051 -1.693522,0 -2.720924,-1.343527 -2.720924,-3.556395 0,-1.219335 0.316124,-2.190288 0.891921,-2.799955 0.451605,-0.462896 1.072563,-0.699989 1.795132,-0.699989 0.77902,0 1.388688,0.270963 1.761262,0.83547 0.191933,0.259674 0.293544,0.496767 0.417736,0.959662 l 2.167707,-0.462895 z"
         style="font-style:normal;font-variant:normal;font-weight:bold;font-stretch:normal;font-size:12.65624905px;line-height:162.00000048%;font-family:'.Hiragino Kaku Gothic Interface';-inkscape-font-specification:'.Hiragino Kaku Gothic Interface, Bold';text-align:start;writing-mode:lr-tb;text-anchor:start;fill:#3d8af7;fill-opacity:1"
         id="path4845" />
      <path
         d="m 61.497358,32.978368 c -0.07903,-0.643538 -0.101612,-1.106434 -0.101612,-1.749972 l 0,-2.41609 2.912857,-4.707989 c 0.237093,-0.406446 0.666118,-1.038694 0.948372,-1.422558 l -2.698344,0 c -0.09032,0.338704 -0.259673,0.733859 -0.587087,1.298366 l -1.637071,2.833826 -1.61449,-2.856406 c -0.316124,-0.541927 -0.485476,-0.903212 -0.598378,-1.275786 l -2.698344,0 c 0.304834,0.440315 0.620958,0.914501 0.948372,1.422558 l 2.912857,4.696699 0,2.42738 c 0,0.666118 -0.03387,1.230625 -0.101611,1.749972 l 2.314479,0 z"
         style="font-style:normal;font-variant:normal;font-weight:bold;font-stretch:normal;font-size:12.65624905px;line-height:162.00000048%;font-family:'.Hiragino Kaku Gothic Interface';-inkscape-font-specification:'.Hiragino Kaku Gothic Interface, Bold';text-align:start;writing-mode:lr-tb;text-anchor:start;fill:#3d8af7;fill-opacity:1"
         id="path4847" />
    </g>
  </g>
  <text
     xml:space="preserve"
     style="font-style:normal;font-variant:normal;font-weight:normal;font-stretch:normal;font-size:0.70312494px;line-height:0%;font-family:'.Arabic UI Text';-inkscape-font-specification:'.Arabic UI Text, Normal';text-align:start;letter-spacing:0px;word-spacing:0px;writing-mode:lr-tb;text-anchor:start;fill:#000000;fill-opacity:1;stroke:none;stroke-width:1px;stroke-linecap:butt;stroke-linejoin:miter;stroke-opacity:1"
     x="26.592371"
     y="7.5755949"
     id="text4607"><tspan
       id="tspan4609"
       x="26.592371"
       y="7.5755949">A</tspan></text>
</svg>
